<svg xmlns="http://www.w3.org/2000/svg" xmlns:xlink="http://www.w3.org/1999/xlink" width="1000" height="610" viewBox="0 0 1000 610"><defs><clipPath id="b"><rect width="1000" height="610"/></clipPath></defs><g id="a" clip-path="url(#b)"><g transform="translate(123.612 -46.859)"><g transform="translate(-91.612 46.86)"><rect width="734.763" height="235.793" transform="translate(99.049 374.207)" fill="#e0e0e0"/><path d="M63.6,268.913s791.818,5.412,791.818,0-59.173-88.5-59.173-88.5h-666.8Z" transform="translate(7.574 105.294)" fill="#e0e0e0"/><path d="M858.666,222.006c0,.3-177.989.556-397.5.556s-397.524-.257-397.524-.556,177.947-.556,397.524-.556S858.666,221.685,858.666,222.006Z" transform="translate(7.62 152.051)" fill="#ebebeb"/><path d="M371.157,104.05,140.99,312.845H600.361Z" transform="translate(95.744 18.298)" fill="#ebebeb"/><path d="M161.47,201.65V480.507H542.607V201.65H161.47Z" transform="translate(119.077 129.493)" fill="#ebebeb"/><path d="M155.971,226.081h45.61V201.65H155.65Z" transform="translate(112.447 129.493)" fill="#f5f5f5"/><path d="M155.462,345.011h50.53V320.58H155.12Z" transform="translate(111.843 264.989)" fill="#f5f5f5"/><path d="M197.262,467.5H157l6.1-254.426h28.581Z" transform="translate(113.985 142.504)" fill="#f5f5f5"/><path d="M191.349,226.081h45.631V201.65H191.05Z" transform="translate(152.778 129.493)" fill="#f5f5f5"/><path d="M190.862,345.011h50.53V320.58H190.52Z" transform="translate(152.174 264.989)" fill="#f5f5f5"/><path d="M232.673,467.5H192.39l6.118-254.426h28.581Z" transform="translate(154.304 142.504)" fill="#f5f5f5"/><path d="M284.9,226.081h45.631V201.65H284.6Z" transform="translate(259.359 129.493)" fill="#f5f5f5"/><path d="M284.424,345.011h50.509V320.58H284.06Z" transform="translate(258.743 264.989)" fill="#f5f5f5"/><path d="M326.223,467.5H285.94l6.118-254.426h28.581Z" transform="translate(260.885 142.504)" fill="#f5f5f5"/><path d="M323.45,226.081h45.631V201.65H323.15Z" transform="translate(303.279 129.493)" fill="#f5f5f5"/><path d="M322.962,345.011h50.53V320.58H322.62Z" transform="translate(302.675 264.989)" fill="#f5f5f5"/><path d="M364.773,467.5H324.49l6.118-254.426h28.581Z" transform="translate(304.805 142.504)" fill="#f5f5f5"/><rect width="56.606" height="107.435" transform="translate(446.514 502.565)" fill="#e0e0e0"/><path d="M295.1,313.683H238.58V258.061a28.3,28.3,0,0,1,28.3-28.281h0A28.282,28.282,0,0,1,295.1,258.062Z" transform="translate(206.928 161.541)" fill="#fafafa"/><rect width="39.534" height="61.997" transform="translate(123.352 413.292)" fill="#f5f5f5"/><path d="M142.529,249.186c0,.3-13.242.556-29.565.556s-29.544-.257-29.544-.556,13.221-.556,29.544-.556S142.529,248.887,142.529,249.186Z" transform="translate(30.155 183.017)" fill="#e0e0e0"/><path d="M142.529,260.4c0,.321-13.242.578-29.565.578s-29.544-.257-29.544-.578,13.221-.556,29.544-.556S142.529,260.182,142.529,260.4Z" transform="translate(30.155 195.789)" fill="#e0e0e0"/><path d="M97.886,319.279c-.321,0-.556-18.248-.556-40.754s.235-40.775.556-40.775.556,18.248.556,40.775S98.186,319.279,97.886,319.279Z" transform="translate(46.003 170.622)" fill="#e0e0e0"/><rect width="39.534" height="61.997" transform="translate(202.677 413.292)" fill="#f5f5f5"/><path d="M179.609,249.186c0,.3-13.242.556-29.565.556s-29.544-.257-29.544-.556,13.221-.556,29.544-.556S179.609,248.887,179.609,249.186Z" transform="translate(72.4 183.017)" fill="#e0e0e0"/><path d="M179.609,260.4c0,.321-13.242.578-29.565.578s-29.544-.257-29.544-.578,13.221-.556,29.544-.556S179.609,260.182,179.609,260.4Z" transform="translate(72.4 195.789)" fill="#e0e0e0"/><path d="M134.966,319.279c-.321,0-.556-18.248-.556-40.754s.235-40.775.556-40.775.556,18.248.556,40.775S135.266,319.279,134.966,319.279Z" transform="translate(88.248 170.622)" fill="#e0e0e0"/><rect width="39.534" height="61.997" transform="translate(202.677 507.1)" fill="#f5f5f5"/><path d="M179.609,293.048c0,.3-13.242.556-29.565.556s-29.544-.257-29.544-.556,13.221-.578,29.544-.578S179.609,292.727,179.609,293.048Z" transform="translate(72.4 232.964)" fill="#e0e0e0"/><path d="M179.609,304.3c0,.3-13.242.556-29.565.556S120.5,304.6,120.5,304.3s13.221-.556,29.544-.556S179.609,303.89,179.609,304.3Z" transform="translate(72.4 245.804)" fill="#e0e0e0"/><path d="M134.966,363.05c-.321,0-.556-18.248-.556-40.754s.235-40.647.556-40.647.556,18.248.556,40.647S135.266,363.05,134.966,363.05Z" transform="translate(88.248 220.637)" fill="#e0e0e0"/><rect width="39.534" height="61.997" transform="translate(124.165 506.159)" fill="#f5f5f5"/><path d="M142.909,292.642c0,.3-13.242.556-29.565.556s-29.544-.257-29.544-.556S97.064,292,113.344,292,142.909,292.342,142.909,292.642Z" transform="translate(30.588 232.428)" fill="#e0e0e0"/><path d="M142.909,303.806c0,.321-13.242.556-29.565.556s-29.544-.235-29.544-.556,13.221-.556,29.544-.556S142.909,303.507,142.909,303.806Z" transform="translate(30.588 245.245)" fill="#e0e0e0"/><path d="M98.3,362.632c-.3,0-.556-18.27-.556-40.775S98,281.21,98.3,281.21s.556,18.248.556,40.647S98.532,362.632,98.3,362.632Z" transform="translate(46.47 220.135)" fill="#e0e0e0"/><rect width="39.534" height="61.997" transform="translate(687.955 413.292)" fill="#f5f5f5"/><path d="M406.479,249.186c0,.3-13.221.556-29.544.556s-29.565-.257-29.565-.556,13.242-.556,29.565-.556S406.479,248.887,406.479,249.186Z" transform="translate(330.872 183.017)" fill="#e0e0e0"/><path d="M406.479,260.4c0,.321-13.221.578-29.544.578s-29.565-.257-29.565-.578,13.242-.556,29.565-.556S406.479,260.182,406.479,260.4Z" transform="translate(330.872 195.789)" fill="#e0e0e0"/><path d="M361.818,319.279c-.321,0-.578-18.248-.578-40.754s.257-40.775.578-40.775.556,18.248.556,40.775S362.117,319.279,361.818,319.279Z" transform="translate(346.674 170.622)" fill="#e0e0e0"/><rect width="39.534" height="61.997" transform="translate(767.28 413.292)" fill="#f5f5f5"/><path d="M443.479,249.186c0,.3-13.221.556-29.544.556s-29.565-.257-29.565-.556,13.242-.556,29.565-.556S443.479,248.887,443.479,249.186Z" transform="translate(373.026 183.017)" fill="#e0e0e0"/><path d="M443.479,260.4c0,.321-13.221.578-29.544.578s-29.565-.257-29.565-.578,13.242-.556,29.565-.556S443.479,260.182,443.479,260.4Z" transform="translate(373.026 195.789)" fill="#e0e0e0"/><path d="M398.9,319.279c-.321,0-.578-18.248-.578-40.754s.257-40.775.578-40.775.556,18.248.556,40.775S399.2,319.279,398.9,319.279Z" transform="translate(388.919 170.622)" fill="#e0e0e0"/><rect width="39.534" height="61.997" transform="translate(767.28 507.1)" fill="#f5f5f5"/><path d="M443.479,293.048c0,.3-13.221.556-29.544.556s-29.565-.257-29.565-.556,13.242-.578,29.565-.578S443.479,292.727,443.479,293.048Z" transform="translate(373.026 232.964)" fill="#e0e0e0"/><path d="M443.479,304.3c0,.3-13.221.556-29.544.556s-29.565-.257-29.565-.556,13.242-.556,29.565-.556S443.479,303.89,443.479,304.3Z" transform="translate(373.026 245.804)" fill="#e0e0e0"/><path d="M398.9,363.05c-.321,0-.578-18.248-.578-40.754s.257-40.647.578-40.647.556,18.248.556,40.647S399.2,363.05,398.9,363.05Z" transform="translate(388.919 220.637)" fill="#e0e0e0"/><rect width="39.534" height="61.997" transform="translate(688.768 506.159)" fill="#f5f5f5"/><path d="M406.819,292.6c0,.3-13.221.556-29.544.556s-29.565-.257-29.565-.556,13.242-.556,29.565-.556S406.819,292.3,406.819,292.6Z" transform="translate(331.26 232.474)" fill="#e0e0e0"/><path d="M406.819,303.806c0,.321-13.221.556-29.544.556s-29.565-.235-29.565-.556,13.242-.556,29.565-.556S406.819,303.507,406.819,303.806Z" transform="translate(331.26 245.245)" fill="#e0e0e0"/><path d="M362.186,362.632c-.321,0-.556-18.27-.556-40.775s.235-40.647.556-40.647.556,18.248.556,40.647S362.422,362.632,362.186,362.632Z" transform="translate(347.119 220.135)" fill="#e0e0e0"/><path d="M319.666,243.626c0,.3-19.682.556-43.963.556s-43.984-.257-43.984-.556,19.682-.556,43.984-.556S319.666,243.305,319.666,243.626Z" transform="translate(199.113 176.683)" fill="#ebebeb"/><path d="M319.666,256.886c0,.321-19.682.556-43.963.556s-43.984-.235-43.984-.556,19.682-.556,43.984-.556S319.666,256.587,319.666,256.886Z" transform="translate(199.113 191.79)" fill="#ebebeb"/><path d="M252.106,322.326c-.3,0-.556-21.393-.556-47.578s.257-47.578.556-47.578.556,21.393.556,47.578S252.513,322.326,252.106,322.326Z" transform="translate(221.705 158.568)" fill="#ebebeb"/><path d="M600.35,201.946c0,.321-102.836.556-229.675.556S141,202.267,141,201.946s102.815-.556,229.7-.556S600.35,201.647,600.35,201.946Z" transform="translate(95.756 129.197)" fill="#e0e0e0"/><path d="M333.285,120.227s.257.193.749.642l2.139,2.139,8.557,7.958,32.731,30.1L492.042,267.817l.941.877H173.8l.941-.877L289.365,161.066l32.475-30.207L330.4,122.9l2.139-2.139.749-.642s-.235.257-.749.727l-2.139,2.139-8.557,8.108-32.517,30.571L175.255,268.63l-.342-.877H491.528l-.342.877L377.161,161.665,344.773,131.18l-8.557-8.108-2.139-2.139Z" transform="translate(133.125 36.606)" fill="#e0e0e0"/><path d="M956.394,277.916c0,.3-205.372.556-458.644.556S39,278.216,39,277.916s205.372-.556,458.686-.556S956.394,277.6,956.394,277.916Z" transform="translate(-20.452 215.749)" fill="#e0e0e0"/><path d="M236.807,227c8.707,4.279,16.237-5.263,16.237-5.263L248,217.61c-3.851,6.011-12.836,3.7-12.836,3.7Z" transform="translate(203.032 147.676)" fill="#e0e0e0"/><path d="M266.9,163.9c-2.653-9.37-14.825-8.45-14.825-8.45l.342,6.418c7.038-1.2,11.4,7.038,11.4,7.038Z" transform="translate(222.297 76.833)" fill="#e0e0e0"/><path d="M403.015,220.567c-2.653-9.37-14.825-8.557-14.825-8.557l.321,6.418c7.038-1.219,11.424,7.038,11.424,7.038Z" transform="translate(377.378 141.275)" fill="#e0e0e0"/><path d="M124.7,178.077c-2.653-9.37-14.825-8.557-14.825-8.557l.342,6.418c7.038-1.219,11.4,7.038,11.4,7.038Z" transform="translate(60.29 92.867)" fill="#e0e0e0"/><path d="M172.136,139.065c-1.8-6.418-10.076-5.733-10.076-5.733l.235,4.428c4.771-.834,7.744,4.771,7.744,4.771Z" transform="translate(119.749 51.634)" fill="#e0e0e0"/><path d="M297.726,121.165c-1.8-6.418-10.076-5.755-10.076-5.755l.235,4.428c4.771-.813,7.744,4.771,7.744,4.771Z" transform="translate(262.834 31.218)" fill="#e0e0e0"/><path d="M84.389,138.57c-6.568.685-7.359,8.942-7.359,8.942l4.407.535c0-4.856,6.011-6.846,6.011-6.846Z" transform="translate(22.875 57.626)" fill="#e0e0e0"/><path d="M295.979,184.269c.963-6.546-6.824-9.349-6.824-9.349l-1.6,4.129c4.707,1.2,5.134,7.509,5.134,7.509Z" transform="translate(262.72 99.04)" fill="#e0e0e0"/><path d="M239.64,277.859c.941-6.525-6.846-9.349-6.846-9.349l-1.6,4.129c4.706,1.2,5.134,7.53,5.134,7.53Z" transform="translate(198.509 205.666)" fill="#e0e0e0"/><path d="M437.57,205.639c.941-6.418-6.846-9.349-6.846-9.349l-1.6,4.15c4.706,1.2,5.134,7.509,5.134,7.509Z" transform="translate(424.01 123.386)" fill="#e0e0e0"/><path d="M115.477,116.327c8.707,4.279,16.237-5.263,16.237-5.263L126.666,107c-3.851,6.033-12.836,3.7-12.836,3.7Z" transform="translate(64.801 21.659)" fill="#e0e0e0"/><path d="M337.8,140.473c8.707,4.279,16.237-5.263,16.237-5.263l-5.049-4.15c-3.851,6.033-12.836,3.7-12.836,3.7Z" transform="translate(318.089 49.07)" fill="#e0e0e0"/><path d="M231.765,129.847c-2.653-9.37-14.825-8.557-14.825-8.557l.342,6.418c7.038-1.2,11.4,7.038,11.4,7.038Z" transform="translate(182.274 37.918)" fill="#e0e0e0"/><path d="M393.375,114.9c-2.653-9.349-14.825-8.557-14.825-8.557l.342,6.525c7.038-1.219,11.4,7.017,11.4,7.017Z" transform="translate(366.396 20.886)" fill="#e0e0e0"/><path d="M46.332,185.3c-2.139-10.076-15.831-8.065-15.831-8.065l-.171,7.124c7.958-1.9,12.151,6.8,12.151,6.8Z" transform="translate(-30.33 101.493)" fill="#e0e0e0"/><path d="M181.574,210.277c-2.631-9.37-14.8-8.557-14.8-8.557l.321,6.525c7.038-1.219,11.424,7.038,11.424,7.038Z" transform="translate(125.116 129.552)" fill="#e0e0e0"/><path d="M401.575,164.077c-2.653-9.37-14.825-8.557-14.825-8.557l.342,6.418c7.038-1.219,11.4,7.038,11.4,7.038Z" transform="translate(375.738 76.916)" fill="#e0e0e0"/><path d="M75.11,200.029c.963-6.546-6.846-9.349-6.846-9.349l-1.6,4.129c4.706,1.2,5.134,7.53,5.134,7.53Z" transform="translate(11.061 116.995)" fill="#e0e0e0"/><path d="M206.55,186.979c.941-6.546-6.846-9.349-6.846-9.349l-1.6,4.129c4.706,1.2,5.134,7.53,5.134,7.53Z" transform="translate(160.81 102.127)" fill="#e0e0e0"/><path d="M251.39,105.905l-1.947-2.417a3.017,3.017,0,0,1,.513-4.279c12.472-9.477,68.351-51.878,70.083-52.306s3.765,2.4,3.765,2.4a11.166,11.166,0,0,1,.556,3.615Z" transform="translate(218.549 -46.859)" fill="#ebebeb"/><path d="M318.826,48.473l-68.137,51.771a2.909,2.909,0,0,0,1.07,5.156l18.933,4.664a2.952,2.952,0,0,0,2.417-.471L324.858,72.07a2.91,2.91,0,0,0,1.177-2.76L323.489,50.4a2.909,2.909,0,0,0-4.664-1.925Z" transform="translate(219.4 -45.712)" fill="#e0e0e0"/><path d="M267.333,103.128c.15.15-2.139-3.209-2.268-3.337a17.114,17.114,0,0,1,2.653-23.875,105.106,105.106,0,0,1,19.874-13.692,19.639,19.639,0,0,1,22.933,3.016l4.279,4Z" transform="translate(232.92 -32.081)" fill="#ebebeb"/><path d="M250.79,102.4a14.507,14.507,0,0,0,1.6-.963,9.776,9.776,0,0,0,3.123-3.829,14.227,14.227,0,0,0,1.369-7.188,72.157,72.157,0,0,0-1.284-9.2,23.192,23.192,0,0,1,.128-9.5,10.14,10.14,0,0,1,4.535-6.418,7.509,7.509,0,0,1,5.134-1.134,3.252,3.252,0,0,1,1.8.706,8,8,0,0,0-1.84-.278,7.573,7.573,0,0,0-4.664,1.369,9.563,9.563,0,0,0-3.979,5.9,23.168,23.168,0,0,0,0,9.092,65.166,65.166,0,0,1,1.2,9.327,14.377,14.377,0,0,1-1.711,7.594,9.178,9.178,0,0,1-3.637,3.765A3.483,3.483,0,0,1,250.79,102.4Z" transform="translate(220.839 -27.222)" fill="#e0e0e0"/><path d="M257.585,81.9c-4.107-.62-8.215,1.647-12.365,1.2a5.155,5.155,0,0,0,3.4,1.3c-.235.513-.877.642-1.433.749s-1.2.3-1.326.856a1.284,1.284,0,0,0,0,.792A11.638,11.638,0,0,0,248,90.6c2.139-1.476,4.279-3.059,6.418-4.728,1.284-1.027,3.7-2.139,3.145-3.894" transform="translate(214.493 -7.064)" fill="#e0e0e0"/><path d="M404.661,159.7l-1.947-2.417a2.995,2.995,0,0,1,.535-4.279c12.451-9.477,68.329-51.9,70.062-52.327s3.808,2.439,3.808,2.439a10.979,10.979,0,0,1,.556,3.594Z" transform="translate(393.168 14.401)" fill="#ebebeb"/><path d="M472.137,102.216l-68.158,51.792a2.909,2.909,0,0,0,1.07,5.156l18.933,4.642a2.867,2.867,0,0,0,2.417-.471L478.084,125.9a2.888,2.888,0,0,0,1.177-2.76l-2.524-18.89a2.931,2.931,0,0,0-4.6-2.032Z" transform="translate(394.043 15.596)" fill="#e0e0e0"/><path d="M421.952,156.173c.15.171-2.139-3.188-2.246-3.316a17.114,17.114,0,0,1,2.674-23.9,106,106,0,0,1,19.874-13.67,19.639,19.639,0,0,1,22.912,3.016l4.279,4Z" transform="translate(409.1 28.385)" fill="#ebebeb"/><path d="M404.08,156.152a14.507,14.507,0,0,0,1.6-.963,9.925,9.925,0,0,0,3.166-3.787,14.5,14.5,0,0,0,1.391-7.188,80.111,80.111,0,0,0-1.284-9.2,22.828,22.828,0,0,1,.107-9.5,10.012,10.012,0,0,1,4.557-6.418,7.6,7.6,0,0,1,5.113-1.155,3.337,3.337,0,0,1,1.8.706,9.839,9.839,0,0,0-1.84-.278,7.638,7.638,0,0,0-4.664,1.391,9.5,9.5,0,0,0-3.979,5.9,23.533,23.533,0,0,0,0,9.071,69.38,69.38,0,0,1,1.219,9.327,14.739,14.739,0,0,1-1.712,7.595,9.561,9.561,0,0,1-3.658,3.787,3.85,3.85,0,0,1-1.819.706Z" transform="translate(395.482 34.054)" fill="#e0e0e0"/><path d="M410.925,135.688c-4.129-.62-8.236,1.647-12.365,1.2a5.22,5.22,0,0,0,3.4,1.3c-.257.492-.9.62-1.455.727s-1.2.321-1.326.856a1.5,1.5,0,0,0,0,.813,11.506,11.506,0,0,0,2.139,3.808,63.091,63.091,0,0,0,6.418-4.749c1.262-1.027,3.68-2.139,3.145-3.872" transform="translate(389.193 54.219)" fill="#e0e0e0"/><path d="M82.67,71.688l.513-3.059a3.016,3.016,0,0,1,3.551-2.439c15.339,3.059,84.139,16.836,85.572,17.842s.706,4.471.706,4.471c-.214.9-2.332,2.8-2.332,2.8Z" transform="translate(29.301 -24.9)" fill="#ebebeb"/><path d="M170.122,84.207,86.176,67.435a2.909,2.909,0,0,0-3.145,4.279L92.081,89a2.91,2.91,0,0,0,1.947,1.476l62.4,13.927a2.931,2.931,0,0,0,2.845-.941l12.472-14.419a2.909,2.909,0,0,0-1.626-4.835Z" transform="translate(29.282 -23.492)" fill="#e0e0e0"/><path d="M89.1,92.571c0,.214.963-3.722.984-3.894a17.114,17.114,0,0,1,19.66-13.841,106.773,106.773,0,0,1,23.4,5.819,19.639,19.639,0,0,1,12.836,19.254l-.171,5.84Z" transform="translate(36.626 -15.255)" fill="#ebebeb"/><path d="M77.56,83.78a16.474,16.474,0,0,0,1.8.556,9.67,9.67,0,0,0,4.92-.128A14.205,14.205,0,0,0,90.7,80.486a75.17,75.17,0,0,0,6.033-7.06,23.361,23.361,0,0,1,7.209-6.2,10.162,10.162,0,0,1,7.744-.77,7.488,7.488,0,0,1,4.279,3.081,3.316,3.316,0,0,1,.663,1.818,9.435,9.435,0,0,0-1.005-1.562,7.594,7.594,0,0,0-4.129-2.589,9.541,9.541,0,0,0-7.06.941,23.233,23.233,0,0,0-6.8,5.99,64.287,64.287,0,0,1-6.29,7.1,14.633,14.633,0,0,1-6.824,3.744,9.113,9.113,0,0,1-5.241-.235A3.68,3.68,0,0,1,77.56,83.78Z" transform="translate(23.479 -25.034)" fill="#e0e0e0"/><path d="M84.721,78.977c-2.268-3.508-6.7-5.07-9.092-8.557a5.2,5.2,0,0,0,1.284,3.423,1.947,1.947,0,0,1-1.519-.6,1.134,1.134,0,0,0-2.139.171A11.274,11.274,0,0,0,71.8,77.5c2.567.685,5.177,1.241,7.787,1.669,1.626.278,4.107,1.326,5.006-.214" transform="translate(16.917 -20.017)" fill="#e0e0e0"/></g></g><g transform="translate(502.333 519.632)"><path d="M276.987,445.394c-2.586,3.449-7.343,2.112-9.5-.115s-2.989-5.389-3.75-8.392c-1.724-6.869-3.463-14.068-1.767-20.951a11.5,11.5,0,0,1,2.874-5.575,6.064,6.064,0,0,1,5.748-1.724c2.4.718,3.822,3.147,4.828,5.446a49.632,49.632,0,0,1,4.2,21.554,17.244,17.244,0,0,1-2.673,9.8" transform="translate(-245.752 -408.483)" fill="#008ad8"/><g transform="translate(15.526)" opacity="0.2"><path d="M276.987,445.394c-2.586,3.449-7.343,2.112-9.5-.115s-2.989-5.389-3.75-8.392c-1.724-6.869-3.463-14.068-1.767-20.951a11.5,11.5,0,0,1,2.874-5.575,6.064,6.064,0,0,1,5.748-1.724c2.4.718,3.822,3.147,4.828,5.446a49.632,49.632,0,0,1,4.2,21.554,17.244,17.244,0,0,1-2.673,9.8" transform="translate(-261.278 -408.483)"/></g><path d="M271.85,447.106a21.4,21.4,0,0,0-13.234-2.069,10.921,10.921,0,0,0-6.653,2.716c-1.71,1.753-2.127,4.929-.3,6.538a6.308,6.308,0,0,0,4.11,1.193c3.506.086,7.429-.4,10.159,1.8,1.566,1.265,2.558,3.3,4.455,3.966a4.526,4.526,0,0,0,5.058-2.04,7.745,7.745,0,0,0,.747-5.748A8.722,8.722,0,0,0,271.85,447.106Z" transform="translate(-250.473 -392.635)" fill="#008ad8"/><path d="M277.547,446.844a12.789,12.789,0,0,1-1.595-11.883,22.747,22.747,0,0,1,7.343-9.915,37.821,37.821,0,0,1,12.775-6.969,13.463,13.463,0,0,1,5.748-.762,5.934,5.934,0,0,1,4.627,3.018c1.236,2.558-.129,5.575-1.581,8.018a95.8,95.8,0,0,1-8.622,12.257c-2.572,3.089-5.5,6.136-9.311,7.443s-7.716,1.006-9.613-1.667" transform="translate(-239.688 -404.645)" fill="#008ad8"/><path d="M276.344,481.282a7.774,7.774,0,0,1-.158-1.609c-.086-1.164-.172-2.644-.287-4.383a64.038,64.038,0,0,0-.762-6.466,48.574,48.574,0,0,0-2.084-7.645,27.69,27.69,0,0,0-3.635-7,14.556,14.556,0,0,0-4.742-4.225,13.579,13.579,0,0,0-4.081-1.437,8.319,8.319,0,0,1-1.595-.287,8.347,8.347,0,0,1,1.638,0,12.285,12.285,0,0,1,4.311,1.264,14.527,14.527,0,0,1,5.015,4.311,27.3,27.3,0,0,1,3.779,7.185,46.689,46.689,0,0,1,2.055,7.774,55.26,55.26,0,0,1,.632,6.538c.072,1.854.072,3.362.072,4.411A6.235,6.235,0,0,1,276.344,481.282Z" transform="translate(-246.747 -391.132)" fill="#263238"/><path d="M272.679,490.931a3.725,3.725,0,0,1,0-.747,20.2,20.2,0,0,1,.086-2.127c0-1.839.144-4.512.158-7.817,0-6.61-.187-15.735-.948-25.793s-1.926-19.111-3.046-25.621c-.259-1.638-.532-3.1-.79-4.311s-.445-2.4-.647-3.3-.316-1.538-.431-2.084a2.875,2.875,0,0,1-.1-.747,4.155,4.155,0,0,1,.23.718c.144.532.331,1.221.546,2.055s.489,2,.776,3.276.589,2.759.876,4.311a244.52,244.52,0,0,1,3.248,25.664c.762,10.059.948,19.226.762,25.865-.072,3.319-.23,5.992-.388,7.831-.072.862-.144,1.566-.2,2.127A2.284,2.284,0,0,1,272.679,490.931Z" transform="translate(-243.269 -404.158)" fill="#263238"/><path d="M271.333,471.37a14.374,14.374,0,0,1,.086-2.227c.129-1.437.4-3.477.891-6.006a77.894,77.894,0,0,1,2.256-8.708,75.95,75.95,0,0,1,4.023-10.245,55.036,55.036,0,0,1,11.338-16.424,28.467,28.467,0,0,1,2.615-2.27c.4-.316.762-.632,1.121-.877l1.006-.647a16.36,16.36,0,0,1,1.911-1.135,67.9,67.9,0,0,0-6.323,5.274,58.283,58.283,0,0,0-11.079,16.352,86.239,86.239,0,0,0-4.009,10.231,88.82,88.82,0,0,0-2.371,8.622c-.546,2.486-.877,4.526-1.092,5.935a16.768,16.768,0,0,1-.374,2.127Z" transform="translate(-241.363 -402.213)" fill="#263238"/></g><g transform="translate(500 157.447)"><path d="M350.409,172a8.507,8.507,0,0,0-4.569,8.234c.187,1.839.963,3.564,1.293,5.389a5.159,5.159,0,0,1-1.437,5.058c-1.609,1.193-4.311,1.02-5.087,2.874a2.788,2.788,0,0,0,1.265,3.118,8.1,8.1,0,0,0,3.449,1.035,2.543,2.543,0,0,0-1.983,3.118,4.138,4.138,0,0,0,2.874,2.745,11.926,11.926,0,0,0,4.167.273" transform="translate(-220.509 -149.627)" fill="#263238"/><path d="M347.088,181.013c-3.621-4.555.158-9.211,3.521-11.28s9.412-1.8,13.32-1.15c3.492.589,6.883,1.954,10.432,1.882s7.027-1.437,9.944.316a7.788,7.788,0,0,1,3.233,6.811,47.984,47.984,0,0,1-1.221,7.788,11.28,11.28,0,0,0,.877,7.688,16.916,16.916,0,0,0,2.543,2.874,9.9,9.9,0,0,1,2.328,3.075,3.851,3.851,0,0,1-.187,3.707,2.457,2.457,0,0,1-3.391.647,4.167,4.167,0,0,1-1.006,5.159,5.877,5.877,0,0,1-5.417.934,10.058,10.058,0,0,1-4.627-3.276" transform="translate(-218.281 -151.326)" fill="#263238"/><path d="M378.233,233.484l-22.9-1.811c-.144-2.673,0-13.019,0-13.019s-9.527-1.437-9.656-11.007,1.538-31.4,1.538-31.4h0a33.05,33.05,0,0,1,33.265,4.182l1.437,1.092Z" transform="translate(-218.258 -148.949)" fill="#b76f4f"/><path d="M347.425,186.341c.144.172,1.092-.546,2.4-.56s2.256.675,2.4.5-.072-.374-.489-.69a3.219,3.219,0,0,0-1.925-.6,3.176,3.176,0,0,0-1.911.661C347.5,185.967,347.354,186.269,347.425,186.341Z" transform="translate(-217.497 -143.951)" fill="#263238"/><path d="M357,186.821c.144.172,1.078-.546,2.4-.56s2.256.675,2.4.5-.072-.374-.489-.69a3.219,3.219,0,0,0-1.926-.6,3.176,3.176,0,0,0-1.911.661A1.149,1.149,0,0,0,357,186.821Z" transform="translate(-213.306 -143.742)" fill="#263238"/><path d="M354.034,197.109a6.078,6.078,0,0,0-2.127-.46c-.345,0-.618-.115-.632-.3a1.653,1.653,0,0,1,.244-.977l1.035-2.658A35.55,35.55,0,0,0,354.8,185.7a37.272,37.272,0,0,0-2.946,6.739c-.331.934-.661,1.811-.977,2.687a2.113,2.113,0,0,0-.187,1.437.905.905,0,0,0,.589.56,3.259,3.259,0,0,0,.589.072,6.753,6.753,0,0,0,2.17-.086Z" transform="translate(-216.087 -143.641)" fill="#263238"/><path d="M357.878,194.64a24.3,24.3,0,0,1-6.437,1.882,3.635,3.635,0,0,0,4.311,1.437C358.582,196.91,357.878,194.64,357.878,194.64Z" transform="translate(-215.735 -139.735)" fill="#fff"/><path d="M352.414,205.915a22.187,22.187,0,0,0,12.43-3.535s-2.946,6.854-12.444,5.992Z" transform="translate(-215.316 -136.353)" fill="#754330"/><path d="M346.657,179.353s5.575,3.219,13.378,0c5.116-2.1,10.964-2.874,12.157-1.8s-1.135,12.43,5.748,13.536c0,0-.072,6.351,2.443,6.351,3.908,0,3.046-17.5,3.046-17.5l-9.125-5.317-10.174-2.716-9.843.647-7.688,1.509Z" transform="translate(-217.85 -149.666)" fill="#263238"/><path d="M370.214,186.081c.158,0,6.538-1.925,6.337,4.584s-6.711,4.957-6.711,4.771S370.214,186.081,370.214,186.081Z" transform="translate(-207.695 -143.591)" fill="#b76f4f"/><path d="M371.283,192.362a2.48,2.48,0,0,0,.3.172,1.164,1.164,0,0,0,.848,0,2.874,2.874,0,0,0,1.437-2.472,3.751,3.751,0,0,0-.273-1.638,1.308,1.308,0,0,0-.819-.905.589.589,0,0,0-.69.3c-.086.172,0,.3-.086.316s-.129-.115-.072-.388a.676.676,0,0,1,.273-.388.847.847,0,0,1,.632-.158,1.638,1.638,0,0,1,1.15,1.049,3.821,3.821,0,0,1,.331,1.839,2.96,2.96,0,0,1-1.739,2.759,1.236,1.236,0,0,1-1.035-.216C371.283,192.52,371.254,192.362,371.283,192.362Z" transform="translate(-207.069 -142.988)" fill="#754330"/><path d="M352.911,182.829c-.2.359-1.437,0-2.946,0s-2.773.144-2.874-.23,1.121-1.293,3-1.207S353.127,182.513,352.911,182.829Z" transform="translate(-217.638 -145.526)" fill="#263238"/><path d="M363.106,183.439c-.2.359-1.437,0-2.946,0s-2.773.144-2.946-.23,1.121-1.293,3-1.207S363.322,183.051,363.106,183.439Z" transform="translate(-213.219 -145.259)" fill="#263238"/><path d="M337.72,161.816l.1-2.2a2.127,2.127,0,0,1,2.285-2.026c11.108.819,60.869,4.526,61.99,5.1,1.351.7.891,3.089.891,3.089a7.817,7.817,0,0,1-1.437,2.2Z" transform="translate(-221.73 -155.925)" fill="#008ad8"/><path d="M400.661,163.419l-60.711-4.5a2.084,2.084,0,0,0-1.868,3.262l7.9,11.395a2.083,2.083,0,0,0,1.437.891l45.264,4.311a2.069,2.069,0,0,0,1.925-.92l7.544-11.266a2.084,2.084,0,0,0-1.494-3.176Z" transform="translate(-221.733 -155.344)" fill="#008ad8"/><g transform="translate(115.98 3.572)" opacity="0.5"><path d="M400.661,163.419l-60.711-4.5a2.084,2.084,0,0,0-1.868,3.262l7.9,11.395a2.083,2.083,0,0,0,1.437.891l45.264,4.311a2.069,2.069,0,0,0,1.925-.92l7.544-11.266a2.084,2.084,0,0,0-1.494-3.176Z" transform="translate(-337.713 -158.916)"/></g><path d="M346.05,176.763c0,.144.359-2.716.359-2.874a12.171,12.171,0,0,1,12.659-11.5,75.524,75.524,0,0,1,17.085,2.112,13.924,13.924,0,0,1,10.791,12.415l.388,4.124Z" transform="translate(-218.09 -153.829)" fill="#008ad8"/><path d="M333.08,171.719a8.473,8.473,0,0,0,1.308.244,6.811,6.811,0,0,0,3.477-.5A10.188,10.188,0,0,0,342,168.27a54.607,54.607,0,0,0,3.65-5.5,16.482,16.482,0,0,1,4.526-5.015,7.285,7.285,0,0,1,5.388-1.221,5.317,5.317,0,0,1,3.262,1.8,2.414,2.414,0,0,1,.632,1.221c-.072,0-.259-.431-.848-1.02a5.417,5.417,0,0,0-3.133-1.437,6.825,6.825,0,0,0-4.914,1.279,16.467,16.467,0,0,0-4.311,4.842,51.1,51.1,0,0,1-3.75,5.547,10.346,10.346,0,0,1-4.483,3.233,6.668,6.668,0,0,1-3.707.3A2.472,2.472,0,0,1,333.08,171.719Z" transform="translate(-223.757 -156.43)" fill="#263238"/><path d="M336.2,168.717c-1.911-2.27-5.173-2.989-7.185-5.187a3.664,3.664,0,0,0,1.193,2.3,1.236,1.236,0,0,1-1.106-.287c-.345-.2-.79-.388-1.121-.172a1.092,1.092,0,0,0-.331.474,8.162,8.162,0,0,0-.675,3.032c1.882.244,3.765.417,5.662.489,1.164,0,3,.56,3.506-.589" transform="translate(-226.427 -153.328)" fill="#263238"/><path d="M375.233,175.38a12.687,12.687,0,0,0-.891,5.374,4.311,4.311,0,0,0,3.319,3.865,11.367,11.367,0,0,0,2.414-.158,2.73,2.73,0,0,1,2.256.618,2.673,2.673,0,0,1,0,3.061,6.035,6.035,0,0,1-9.081,1.868" transform="translate(-206.205 -148.15)" fill="#263238"/><path d="M349.746,470.384l-.072-12.717,23.81-.287.316,18.608-1.437.1c-6.567.445-33.423,1.811-37.835.532C329.571,475.184,349.746,470.384,349.746,470.384Z" transform="translate(-223.467 -24.932)" fill="#008ad8"/><g transform="translate(141.683 444.042)" opacity="0.4"><path d="M355.6,472.376a8.248,8.248,0,0,1,2.989-5.116,7.932,7.932,0,0,1,5.547-1.8l.086,6.653Z" transform="translate(-355.6 -465.449)"/></g><g transform="translate(110.148 448.153)" opacity="0.4"><path d="M339.9,468.31s-7.07,2.127-6.165,3.291,28.092.8,40.076-.388v-.532l-31.713.675S341.336,468.353,339.9,468.31Z" transform="translate(-333.654 -468.31)"/></g><path d="M374.136,469.94h-.4l-1.178.086-4.311.23c-3.65.187-8.708.359-14.283.445s-10.648,0-14.369,0l-4.311-.115h18.594c5.575,0,10.633-.23,14.369-.359l4.311-.144h1.178Z" transform="translate(-223.486 -19.444)" fill="#263238"/><path d="M340.228,471.8a6.294,6.294,0,0,0-2.328-3.693,3.2,3.2,0,0,1,1.739,1.437,3.247,3.247,0,0,1,.589,2.256Z" transform="translate(-221.651 -20.244)" fill="#263238"/><path d="M344.773,468.74a3.061,3.061,0,0,1-.762-.905c-.359-.546-.589-1.02-.517-1.063s.4.359.762.905S344.845,468.7,344.773,468.74Z" transform="translate(-219.213 -20.83)" fill="#263238"/><path d="M346.167,467.81a3.729,3.729,0,0,1-.848-.546c-.417-.359-.7-.7-.647-.762s.431.187.848.546S346.224,467.753,346.167,467.81Z" transform="translate(-218.695 -20.95)" fill="#263238"/><path d="M347.3,465.883a2.873,2.873,0,0,1-1.236.172,2.989,2.989,0,0,1-1.25-.115c0-.086.546-.158,1.236-.172A2.731,2.731,0,0,1,347.3,465.883Z" transform="translate(-218.632 -21.279)" fill="#263238"/><path d="M347.694,464.73a2.314,2.314,0,0,1-1.437.417,2.472,2.472,0,0,1-1.437-.172,9.263,9.263,0,0,1,1.437-.115,9.138,9.138,0,0,1,1.437-.129Z" transform="translate(-218.628 -21.721)" fill="#263238"/><path d="M345.169,467.334a4.528,4.528,0,0,1-1.538,0,9.467,9.467,0,0,1-1.624-.345,4.182,4.182,0,0,1-.948-.374.8.8,0,0,1-.374-.474.575.575,0,0,1,.216-.6,2.874,2.874,0,0,1,3.492.776,2.5,2.5,0,0,1,.5,1.006.633.633,0,0,1,0,.417,3.88,3.88,0,0,0-.7-1.293,2.73,2.73,0,0,0-1.322-.833,2.371,2.371,0,0,0-1.825.144c-.244.187-.144.474.129.632a6.415,6.415,0,0,0,.862.359,13.157,13.157,0,0,0,1.581.388C344.579,467.291,345.169,467.291,345.169,467.334Z" transform="translate(-220.442 -21.494)" fill="#263238"/><path d="M343.583,467.669a1.624,1.624,0,0,1-.187-1.063,2.472,2.472,0,0,1,.4-1.121,1.581,1.581,0,0,1,1.265-.8.618.618,0,0,1,.488.7,1.652,1.652,0,0,1-.259.69,4.655,4.655,0,0,1-.7.934,2.142,2.142,0,0,1-.877.632s.3-.287.719-.776a4.871,4.871,0,0,0,.632-.92c.2-.331.345-.905,0-.977s-.776.359-1.006.661a2.586,2.586,0,0,0-.417,1.006,8.3,8.3,0,0,0-.058,1.034Z" transform="translate(-219.259 -21.743)" fill="#263238"/><path d="M364,465.455s-.69,0-1.753.086a7.6,7.6,0,0,0-3.822,1.638,7.515,7.515,0,0,0-2.357,3.42c-.359,1.02-.374,1.71-.431,1.7a1.537,1.537,0,0,1,0-.474,7.786,7.786,0,0,1,.244-1.293,7.185,7.185,0,0,1,6.351-5.187,6.281,6.281,0,0,1,1.308,0,1.608,1.608,0,0,1,.46.115Z" transform="translate(-213.91 -21.469)" fill="#263238"/><path d="M359.661,458.54a39.855,39.855,0,0,1,.273,4.886,43.787,43.787,0,0,1,0,4.9,40.508,40.508,0,0,1-.273-4.9,43.5,43.5,0,0,1,0-4.886Z" transform="translate(-212.173 -24.426)" fill="#263238"/><path d="M355.619,468.686a13.825,13.825,0,0,1-3.477.388,14.038,14.038,0,0,1-3.492-.23c0-.086,1.566,0,3.492,0S355.6,468.6,355.619,468.686Z" transform="translate(-216.954 -20.001)" fill="#263238"/><path d="M356.958,468.633s-.129.331-.287.69-.23.675-.316.675-.129-.374,0-.79S356.9,468.575,356.958,468.633Z" transform="translate(-213.623 -20.02)" fill="#263238"/><path d="M358.27,467.092a1.413,1.413,0,0,1-.331.56c-.244.244-.489.417-.546.359s.086-.3.331-.56S358.141,467.049,358.27,467.092Z" transform="translate(-213.139 -20.692)" fill="#263238"/><path d="M360.1,466.423c0,.072-.331.072-.675.2s-.6.316-.661.273.129-.388.56-.546S360.128,466.337,360.1,466.423Z" transform="translate(-212.54 -21.043)" fill="#263238"/><path d="M361.16,466.01c0,.072-.115.2-.3.273s-.388.086-.417,0,.1-.2.3-.273A.744.744,0,0,1,361.16,466.01Z" transform="translate(-211.804 -21.176)" fill="#263238"/><path d="M419.649,469.794l-1.106-12.674-23.753,1.926,1.437,18.551h1.437c6.581-.172,33.452-1.308,37.72-2.989C440.183,472.754,419.649,469.794,419.649,469.794Z" transform="translate(-196.794 -25.046)" fill="#008ad8"/><g transform="translate(198.83 445.471)" opacity="0.4"><path d="M404.552,472.632a8.234,8.234,0,0,0-3.434-4.814,8.076,8.076,0,0,0-5.748-1.279l.532,6.639Z" transform="translate(-395.37 -466.443)"/></g><g transform="translate(199.419 446.515)" opacity="0.4"><path d="M429.275,467.17s7.185,1.437,6.452,2.7-27.905,3.42-39.947,3.334v-.532l31.613-2.27S427.9,467.342,429.275,467.17Z" transform="translate(-395.78 -467.17)"/></g><path d="M395.52,471.987h1.6l4.311-.158c3.65-.172,8.693-.46,14.269-.891s10.59-.963,14.226-1.437l4.311-.517,1.164-.172a2.506,2.506,0,0,0,.4-.072h-.417l-1.164.115-4.311.431c-3.65.359-8.622.848-14.24,1.293s-10.6.762-14.254.963l-4.311.259-1.178.072Z" transform="translate(-196.475 -19.969)" fill="#263238"/><path d="M417.831,470.864a9.65,9.65,0,0,1,.632-2.127,9.07,9.07,0,0,1,1.336-1.768,3.822,3.822,0,0,0-1.969,3.894Z" transform="translate(-186.742 -20.742)" fill="#263238"/><path d="M412.745,468.22a2.806,2.806,0,0,0,.675-.963c.3-.575.489-1.078.417-1.106s-.374.388-.675.963S412.673,468.191,412.745,468.22Z" transform="translate(-188.955 -21.101)" fill="#263238"/><path d="M411.353,467.444a3.585,3.585,0,0,0,.79-.618c.388-.4.632-.776.575-.833s-.4.23-.79.632S411.3,467.444,411.353,467.444Z" transform="translate(-189.56 -21.173)" fill="#263238"/><path d="M410.38,465.59c0,.086.56.1,1.25,0s1.236-.144,1.221-.23a3,3,0,0,0-1.25,0A2.874,2.874,0,0,0,410.38,465.59Z" transform="translate(-189.982 -21.474)" fill="#263238"/><path d="M410,464.431a2.285,2.285,0,0,0,1.437.3,2.357,2.357,0,0,0,1.437-.3,7.053,7.053,0,0,0-1.437,0,8.629,8.629,0,0,0-1.437,0Z" transform="translate(-190.148 -21.867)" fill="#263238"/><path d="M413.19,466.83a4.311,4.311,0,0,0,1.523-.144,8.17,8.17,0,0,0,1.595-.489,4.682,4.682,0,0,0,.891-.445.862.862,0,0,0,.345-.5.632.632,0,0,0-.273-.6,2.85,2.85,0,0,0-3.822,2.156,1.036,1.036,0,0,0,0,.417,4.47,4.47,0,0,1,.589-1.351,2.573,2.573,0,0,1,1.236-.948,2.3,2.3,0,0,1,1.825,0c.259.158.187.445-.072.632a3.43,3.43,0,0,1-.819.431,12.662,12.662,0,0,1-1.538.546A6.1,6.1,0,0,0,413.19,466.83Z" transform="translate(-188.754 -21.838)" fill="#263238"/><path d="M414.135,467a1.594,1.594,0,0,0,.086-1.078,2.6,2.6,0,0,0-.5-1.078,1.538,1.538,0,0,0-1.336-.675.618.618,0,0,0-.417.733,1.668,1.668,0,0,0,.316.661,4.307,4.307,0,0,0,.79.877,2.4,2.4,0,0,0,.934.546s-.331-.259-.79-.7a5.75,5.75,0,0,1-.718-.862c-.23-.3-.417-.877,0-.977s.8.287,1.063.575a2.545,2.545,0,0,1,.5.948,6.122,6.122,0,0,1,.072,1.035Z" transform="translate(-189.296 -21.966)" fill="#263238"/><path d="M395.49,466.548a10.046,10.046,0,0,1,1.767-.086,7.817,7.817,0,0,1,3.952,1.279,7.6,7.6,0,0,1,2.658,3.19c.445.977.532,1.667.589,1.652a1.321,1.321,0,0,0,0-.474,5.846,5.846,0,0,0-.359-1.265,7.185,7.185,0,0,0-6.8-4.584,6.637,6.637,0,0,0-1.308.144,1.25,1.25,0,0,0-.5.144Z" transform="translate(-196.488 -21.053)" fill="#263238"/><path d="M396.651,459.44a46.964,46.964,0,0,0,.187,4.9,44.427,44.427,0,0,0,.474,4.871,38.8,38.8,0,0,0-.187-4.886,38.113,38.113,0,0,0-.474-4.886Z" transform="translate(-195.982 -24.032)" fill="#263238"/><path d="M403.71,469.175a13.706,13.706,0,0,0,3.492,0,12.36,12.36,0,0,0,3.449-.56c0-.072-1.552.144-3.463.273A23.643,23.643,0,0,0,403.71,469.175Z" transform="translate(-192.896 -20.03)" fill="#263238"/><path d="M400.47,469.233s.158.316.345.661.3.647.388.647.086-.388-.129-.79S400.527,469.176,400.47,469.233Z" transform="translate(-194.312 -19.758)" fill="#263238"/><path d="M399.13,467.814a1.726,1.726,0,0,0,.388.517c.259.23.517.374.575.316s-.115-.3-.388-.532S399.187,467.757,399.13,467.814Z" transform="translate(-194.897 -20.379)" fill="#263238"/><path d="M397.33,467.315c0,.072.345,0,.69.144s.632.259.69.2-.172-.374-.618-.489S397.3,467.243,397.33,467.315Z" transform="translate(-195.684 -20.67)" fill="#263238"/><path d="M396.06,467.008c0,.072.129.187.331.244a.838.838,0,0,0,.4,0,.546.546,0,0,0-.316-.244A.923.923,0,0,0,396.06,467.008Z" transform="translate(-196.239 -20.737)" fill="#263238"/><path d="M333.6,290.69l11.122,247.054,37.087.776L375.645,331.7l41.714,208.4L452,536.766,405.533,290.69" transform="translate(-223.53 -97.766)" fill="#263238"/><path d="M390.73,465.082l1.351,3.492,35.967-4.6L426.7,458.4Z" transform="translate(-198.568 -24.487)" fill="#455a64"/><path d="M410.328,461.77c.187,0,.431.4.517.963s0,1.049-.187,1.078-.431-.388-.517-.963S410.126,461.8,410.328,461.77Z" transform="translate(-190.102 -23.014)" fill="#455a64"/><path d="M409.354,456.14c.2,0,.5.848.69,1.969s.187,2.04,0,2.084-.5-.848-.69-1.969S409.153,456.183,409.354,456.14Z" transform="translate(-190.493 -25.474)" fill="#455a64"/><path d="M408.414,450.51c.187,0,.5.848.69,1.969s.187,2.055,0,2.084-.5-.848-.69-1.969S408.213,450.553,408.414,450.51Z" transform="translate(-190.904 -27.934)" fill="#455a64"/><path d="M407.464,444.88c.2,0,.5.848.69,1.969s.187,2.055,0,2.084-.5-.848-.69-1.969S407.263,444.923,407.464,444.88Z" transform="translate(-191.319 -30.394)" fill="#455a64"/><path d="M406.514,439.25c.2,0,.5.848.69,1.969s.187,2.055,0,2.084-.5-.848-.69-1.969S406.313,439.293,406.514,439.25Z" transform="translate(-191.734 -32.854)" fill="#455a64"/><path d="M405.564,433.62c.2,0,.5.848.7,1.969s.172,2.055,0,2.084-.517-.848-.7-1.969S405.363,433.663,405.564,433.62Z" transform="translate(-192.149 -35.314)" fill="#455a64"/><path d="M404.614,428c.187,0,.5.848.69,1.969s.187,2.055,0,2.084-.5-.848-.69-1.969S404.413,428,404.614,428Z" transform="translate(-192.565 -37.77)" fill="#455a64"/><path d="M403.654,422.36c.2,0,.517.848.7,1.969s.187,2.055,0,2.084-.5-.848-.7-1.969S403.467,422.4,403.654,422.36Z" transform="translate(-192.984 -40.234)" fill="#455a64"/><path d="M402.69,416.73c.2,0,.517.848.7,1.969s.187,2.055,0,2.084-.5-.848-.69-1.969S402.5,416.773,402.69,416.73Z" transform="translate(-193.4 -42.694)" fill="#455a64"/><path d="M401.736,411.11c.2,0,.5.833.7,1.954s.187,2.055,0,2.084-.5-.848-.7-1.954S401.535,411.139,401.736,411.11Z" transform="translate(-193.825 -45.15)" fill="#455a64"/><path d="M400.763,405.48c.2,0,.517.848.7,1.954s.187,2.055,0,2.084-.517-.833-.7-1.954S400.576,405.509,400.763,405.48Z" transform="translate(-194.245 -47.61)" fill="#455a64"/><path d="M399.794,399.85c.2,0,.517.848.7,1.969s.187,2.04,0,2.084-.517-.848-.7-1.969S399.593,399.893,399.794,399.85Z" transform="translate(-194.671 -50.07)" fill="#455a64"/><path d="M398.812,394.23c.2,0,.517.833.718,1.954s.187,2.055,0,2.084-.5-.848-.7-1.954S398.625,394.259,398.812,394.23Z" transform="translate(-195.097 -52.525)" fill="#455a64"/><path d="M397.834,388.6c.2,0,.517.848.7,1.954s.2,2.055,0,2.084-.5-.833-.7-1.954S397.647,388.643,397.834,388.6Z" transform="translate(-195.527 -54.985)" fill="#455a64"/><path d="M396.844,383c.2,0,.517.833.719,1.954s.187,2.055,0,2.084-.517-.848-.719-1.954S396.657,383,396.844,383Z" transform="translate(-195.96 -57.432)" fill="#455a64"/><path d="M395.858,377.35c.187,0,.517.848.7,1.969s.2,2.041,0,2.084-.517-.848-.719-1.969S395.657,377.393,395.858,377.35Z" transform="translate(-196.396 -59.901)" fill="#455a64"/><path d="M394.858,371.73c.187,0,.517.848.7,1.954s.2,2.055,0,2.084-.517-.833-.719-1.954S394.657,371.773,394.858,371.73Z" transform="translate(-196.833 -62.357)" fill="#455a64"/><path d="M393.846,366.11c.187,0,.517.848.718,1.954s.2,2.055,0,2.084-.517-.833-.718-1.954S393.645,366.153,393.846,366.11Z" transform="translate(-197.272 -64.812)" fill="#455a64"/><path d="M392.826,360.49c.2,0,.517.848.719,1.954s.216,2.055,0,2.084-.517-.833-.719-1.954S392.625,360.533,392.826,360.49Z" transform="translate(-197.718 -67.268)" fill="#455a64"/><path d="M391.8,354.88c.2,0,.517.833.733,1.954s.2,2.04,0,2.084-.517-.848-.733-1.954S391.609,354.909,391.8,354.88Z" transform="translate(-198.168 -69.719)" fill="#455a64"/><path d="M390.768,349.26c.187,0,.517.833.718,1.954s.216,2.04,0,2.084-.532-.833-.733-1.954S390.567,349.3,390.768,349.26Z" transform="translate(-198.62 -72.175)" fill="#455a64"/><path d="M389.714,343.65c.2,0,.532.833.733,1.94s.216,2.055,0,2.084-.532-.833-.733-1.94S389.527,343.679,389.714,343.65Z" transform="translate(-199.075 -74.626)" fill="#455a64"/><path d="M388.666,338c.2,0,.517.833.733,1.94s.216,2.055,0,2.084-.532-.833-.733-1.954S388.465,338.086,388.666,338Z" transform="translate(-199.535 -77.095)" fill="#455a64"/><path d="M387.592,332.43c.2,0,.532.833.747,1.94s.216,2.04,0,2.084-.532-.833-.733-1.954S387.405,332.459,387.592,332.43Z" transform="translate(-199.999 -79.528)" fill="#455a64"/><path d="M386.53,326.82c.187,0,.517.833.733,1.94s.23,2.055,0,2.084-.532-.833-.747-1.94S386.329,326.849,386.53,326.82Z" transform="translate(-200.474 -81.98)" fill="#455a64"/><path d="M385.435,321.21c.187,0,.532.833.747,1.954s.23,2.04,0,2.069-.517-.819-.733-1.94S385.234,321.253,385.435,321.21Z" transform="translate(-200.946 -84.431)" fill="#455a64"/><path d="M384.337,315.61c.187,0,.532.833.747,1.94s.244,2.04,0,2.084-.532-.833-.747-1.94S384.136,315.653,384.337,315.61Z" transform="translate(-201.429 -86.878)" fill="#455a64"/><path d="M383.22,310c.2,0,.532.833.762,1.94s.244,2.04,0,2.084-.532-.833-.747-1.94S382.976,310,383.22,310Z" transform="translate(-201.921 -89.329)" fill="#455a64"/><path d="M382.042,304.41c.2,0,.546.833.762,1.94s.259,2.04,0,2.084-.532-.833-.762-1.94A3.528,3.528,0,0,1,382.042,304.41Z" transform="translate(-202.424 -91.772)" fill="#455a64"/><path d="M380.949,298.81c.187,0,.532.833.762,1.94s.259,2.055,0,2.084-.532-.819-.762-1.94S380.748,298.853,380.949,298.81Z" transform="translate(-202.912 -94.218)" fill="#455a64"/><path d="M380.059,294.6c.187,0,.445.374.56.934s0,1.049-.144,1.092-.445-.374-.56-.934S379.9,294.643,380.059,294.6Z" transform="translate(-203.315 -96.058)" fill="#455a64"/><path d="M362.793,461.75c.2,0,.388.445.417,1.02s-.115,1.049-.316,1.049-.374-.431-.4-1.006S362.592,461.764,362.793,461.75Z" transform="translate(-210.908 -23.023)" fill="#455a64"/><path d="M362.546,456c.2,0,.4.905.445,2.041s-.086,2.055-.287,2.069-.388-.905-.431-2.04S362.345,456,362.546,456Z" transform="translate(-211.006 -25.535)" fill="#455a64"/><path d="M362.383,450.3c.187,0,.374.905.417,2.04s-.1,2.069-.3,2.069-.388-.905-.417-2.041S362.182,450.3,362.383,450.3Z" transform="translate(-211.087 -28.026)" fill="#455a64"/><path d="M362.237,444.57c.2,0,.388.905.417,2.04s-.115,2.069-.316,2.069-.388-.905-.417-2.04S362.036,444.57,362.237,444.57Z" transform="translate(-211.157 -30.53)" fill="#455a64"/><path d="M362.093,438.83c.2,0,.388.92.417,2.055s-.115,2.069-.316,2.069-.374-.92-.4-2.055S361.892,438.844,362.093,438.83Z" transform="translate(-211.214 -33.038)" fill="#455a64"/><path d="M361.943,433.1c.2,0,.388.905.417,2.055s-.1,2.055-.3,2.069-.388-.92-.417-2.055S361.756,433.1,361.943,433.1Z" transform="translate(-211.279 -35.541)" fill="#455a64"/><path d="M361.744,427.37c.2,0,.4.905.445,2.04s-.086,2.069-.287,2.069-.4-.905-.431-2.04S361.557,427.37,361.744,427.37Z" transform="translate(-211.354 -38.045)" fill="#455a64"/><path d="M361.507,421.64c.2,0,.4.905.445,2.04s-.072,2.069-.273,2.069-.388-.905-.445-2.041S361.32,421.64,361.507,421.64Z" transform="translate(-211.461 -40.549)" fill="#455a64"/><path d="M361.29,415.91c.2,0,.4.905.445,2.04s-.086,2.069-.287,2.069-.4-.905-.445-2.04S361.089,415.924,361.29,415.91Z" transform="translate(-211.56 -43.052)" fill="#455a64"/><path d="M361.09,410.18c.2,0,.388.905.431,2.055s-.086,2.055-.287,2.069-.388-.92-.431-2.055S360.889,410.194,361.09,410.18Z" transform="translate(-211.648 -45.556)" fill="#455a64"/><path d="M360.923,404.45c.187,0,.374.905.417,2.04s-.1,2.069-.3,2.069-.388-.905-.417-2.04S360.722,404.45,360.923,404.45Z" transform="translate(-211.725 -48.06)" fill="#455a64"/><path d="M360.777,398.72c.187,0,.374.905.4,2.04s-.1,2.069-.3,2.069-.388-.905-.417-2.04S360.576,398.72,360.777,398.72Z" transform="translate(-211.795 -50.563)" fill="#455a64"/><path d="M360.647,393c.2,0,.388.905.4,2.04s-.115,2.069-.316,2.069-.374-.92-.4-2.055S360.446,393,360.647,393Z" transform="translate(-211.852 -53.063)" fill="#455a64"/><path d="M360.561,387.25c.187,0,.374.92.388,2.055s-.129,2.069-.331,2.069-.374-.92-.388-2.055S360.36,387.264,360.561,387.25Z" transform="translate(-211.895 -55.575)" fill="#455a64"/><path d="M360.5,381.52c.187,0,.359.92.374,2.055s-.129,2.069-.331,2.069-.374-.92-.388-2.055S360.294,381.52,360.5,381.52Z" transform="translate(-211.93 -58.079)" fill="#455a64"/><path d="M360.459,375.79c.187,0,.359.92.359,2.055s-.144,2.055-.345,2.069-.359-.92-.374-2.069S360.258,375.79,360.459,375.79Z" transform="translate(-211.951 -60.583)" fill="#455a64"/><path d="M360.439,370.06c.2,0,.359.92.374,2.055s-.172,2.055-.359,2.055-.374-.92-.374-2.055S360.238,370.06,360.439,370.06Z" transform="translate(-211.96 -63.086)" fill="#455a64"/><path d="M360.464,364.32c.2,0,.359.934.345,2.069s-.158,2.055-.359,2.055-.359-.92-.359-2.055S360.262,364.32,360.464,364.32Z" transform="translate(-211.956 -65.594)" fill="#455a64"/><path d="M360.5,358.59c.2,0,.359.934.345,2.069s-.172,2.055-.374,2.055-.359-.934-.345-2.069S360.317,358.59,360.5,358.59Z" transform="translate(-211.938 -68.098)" fill="#455a64"/><path d="M360.588,352.86c.2,0,.345.934.331,2.069s-.187,2.055-.388,2.055-.345-.934-.331-2.069S360.387,352.86,360.588,352.86Z" transform="translate(-211.908 -70.602)" fill="#455a64"/><path d="M360.693,347.13c.2,0,.345.934.316,2.069s-.2,2.055-.388,2.055-.345-.934-.331-2.069S360.491,347.13,360.693,347.13Z" transform="translate(-211.868 -73.105)" fill="#455a64"/><path d="M360.827,341.4c.2,0,.345.92.316,2.069s-.216,2.055-.417,2.04-.331-.92-.316-2.069S360.626,341.386,360.827,341.4Z" transform="translate(-211.816 -75.609)" fill="#455a64"/><path d="M361.038,335.66c.2,0,.331.934.287,2.069s-.244,2.055-.445,2.055-.331-.934-.287-2.084S360.837,335.646,361.038,335.66Z" transform="translate(-211.74 -78.117)" fill="#455a64"/><path d="M361.4,329.93c.187,0,.287.948.216,2.084s-.287,2.04-.489,2.04-.3-.948-.23-2.084S361.2,329.916,361.4,329.93Z" transform="translate(-211.613 -80.621)" fill="#455a64"/><path d="M361.948,324.23c.2,0,.259.948.144,2.084s-.359,2.026-.56,2.012-.259-.948-.144-2.084S361.747,324.2,361.948,324.23Z" transform="translate(-211.414 -83.111)" fill="#455a64"/><path d="M362.469,320c.2,0,.3.5.216,1.063s-.3,1.006-.5.977-.287-.5-.2-1.078S362.282,319.917,362.469,320Z" transform="translate(-211.144 -84.963)" fill="#455a64"/><path d="M340.66,465.241l39.229.647-.3-6.538-38.927.2Z" transform="translate(-220.445 -24.072)" fill="#455a64"/><path d="M358.579,292.87a6.073,6.073,0,0,1,.244,1.509c.1.977.23,2.385.359,4.138.287,3.492.632,8.32.963,13.651.144,2.658.3,5.2.431,7.53a23.063,23.063,0,0,0,.718,6.006,5.043,5.043,0,0,0,2.5,2.975,8.061,8.061,0,0,0,1.437.417h-.388a2.873,2.873,0,0,1-1.15-.216,5.159,5.159,0,0,1-2.874-3.046,21.67,21.67,0,0,1-.905-6.15c-.158-2.328-.316-4.871-.489-7.515-.331-5.345-.589-10.174-.747-13.68-.072-1.753-.129-3.161-.144-4.153a7.018,7.018,0,0,1,.043-1.466Z" transform="translate(-212.643 -96.814)" fill="#455a64"/><path d="M361.486,295.24a2.271,2.271,0,0,0-.345.934,1.135,1.135,0,0,0,.287.833.877.877,0,0,0,.977.129.891.891,0,0,0,.6-.761,1.164,1.164,0,0,0-.388-.8c-.431-.4-.862-.316-.891-.417s.46-.417,1.193,0a1.552,1.552,0,0,1,.747,1.207,1.549,1.549,0,1,1-3.032-.33C360.868,295.269,361.486,295.154,361.486,295.24Z" transform="translate(-211.742 -95.908)" fill="#455a64"/><path d="M391,301.686a7.084,7.084,0,0,1-3.075,1.178,13.349,13.349,0,0,1-7.9-.876,13.177,13.177,0,0,1-5.92-5.3,6.942,6.942,0,0,1-1.178-3.075c.115,0,.489,1.15,1.609,2.8a13.953,13.953,0,0,0,5.748,4.914,14.182,14.182,0,0,0,7.53,1.035C389.8,302.088,390.954,301.571,391,301.686Z" transform="translate(-206.35 -96.49)" fill="#455a64"/><path d="M346.25,292.87a5.4,5.4,0,0,1-.144,2.687,10.518,10.518,0,0,1-9.254,8.1,5.231,5.231,0,0,1-2.673-.215c0-.115,1.02,0,2.6-.287a11.05,11.05,0,0,0,8.837-7.745C346.092,293.89,346.121,292.87,346.25,292.87Z" transform="translate(-223.277 -96.814)" fill="#455a64"/><path d="M352.232,213.1l-.762-4.483s12.257,0,13.823,6.481c0,0,3.247-5.935,12.616-7.5v6.94l-13.22,4.067Z" transform="translate(-215.722 -134.072)" fill="#e0e0e0"/><path d="M408.526,213.36c-3.262,0-6.323-1.782-10.059-1.94h0a40.55,40.55,0,0,1-24.428,0,118.435,118.435,0,0,0-22.2,4.11l-44.66,14.484L301.56,255.2l48.324-3.046s-4.584,65.453-2.242,76.287l72.163-1.882-3.247-39.688.848-24.859,17.387,24.543,25.865-15.4S429.98,213.274,408.526,213.36Z" transform="translate(-237.53 -132.403)" fill="#e0e0e0"/><path d="M365.587,238.334a5.373,5.373,0,0,1,1.049,0h3.1l11.251-.144h.259v10.763a7.7,7.7,0,0,1-1.236,3.765,8.018,8.018,0,0,1-4.972,3.477A7.932,7.932,0,0,1,366,251.582a8.409,8.409,0,0,1-.6-2.285v-2.155c0-2.644.086-4.814.115-6.409v-1.71a2.444,2.444,0,0,1,0-.56,4.113,4.113,0,0,1,0,.647v1.753c0,1.581.072,3.722.115,6.323a20.334,20.334,0,0,0,.072,2.069,8.407,8.407,0,0,0,.589,2.127,7.438,7.438,0,0,0,13.062,1.006,7.3,7.3,0,0,0,1.149-3.477c0-1.221,0-2.486,0-3.679v-6.768l.273.259-11.079-.129h-3.161Z" transform="translate(-209.635 -120.706)" fill="#263238"/><path d="M380.409,240.1a1.6,1.6,0,0,1,.474-.1v.2c-1.049.115-3.98.2-7.415.2a53.163,53.163,0,0,1-7.889-.3,50.97,50.97,0,0,1,7.889-.3c3.434,0,6.366.086,7.415.2v.2A1.892,1.892,0,0,0,380.409,240.1Z" transform="translate(-209.557 -120.019)" fill="#263238"/><path d="M358.643,327.712a10.569,10.569,0,0,1-.072-1.164c0-.833,0-1.94-.1-3.334,0-2.874-.1-7.113-.1-12.3,0-10.375.2-24.715.848-40.536s1.538-30.176,2.256-40.507c.374-5.116.675-9.283.891-12.257q.2-2.069.3-3.319a6.94,6.94,0,0,1,.144-1.164,5.971,5.971,0,0,1,0,1.164c0,.833-.086,1.954-.144,3.348-.158,2.974-.388,7.185-.675,12.271-.575,10.36-1.437,24.672-2.026,40.493s-.948,30.176-1.063,40.507c0,5.13-.1,9.311-.129,12.286v3.348a5.651,5.651,0,0,1-.129,1.164Z" transform="translate(-212.707 -131.656)" fill="#263238"/><path d="M360.642,280a2.52,2.52,0,0,0,1.207.747,1.652,1.652,0,0,0,1.351-.216,1.536,1.536,0,0,0-.517-2.615,1.667,1.667,0,0,0-1.322.316c-.719.5-.733,1.164-.848,1.15s-.316-.762.5-1.552a2.1,2.1,0,0,1,1.811-.589,2.184,2.184,0,0,1,.747,3.894,2.141,2.141,0,0,1-1.9.129C360.628,280.816,360.542,279.968,360.642,280Z" transform="translate(-211.818 -103.655)" fill="#263238"/><path d="M361.2,259.156a2.616,2.616,0,0,0,1.207.747,1.638,1.638,0,0,0,1.351-.216,1.541,1.541,0,0,0-.5-2.615,1.7,1.7,0,0,0-1.336.316c-.719.5-.719,1.164-.848,1.15s-.316-.762.5-1.552a2.112,2.112,0,0,1,1.811-.589,2.184,2.184,0,0,1,.747,3.894,2.141,2.141,0,0,1-1.9.129C361.19,259.975,361.1,259.128,361.2,259.156Z" transform="translate(-211.575 -112.761)" fill="#263238"/><path d="M362.454,235.367a2.616,2.616,0,0,0,1.207.747,1.7,1.7,0,0,0,1.351-.216,1.541,1.541,0,0,0-.5-2.615,1.7,1.7,0,0,0-1.336.316c-.718.5-.718,1.164-.848,1.15s-.316-.762.5-1.552a2.1,2.1,0,0,1,1.811-.589,2.108,2.108,0,1,1-1.15,4.023C362.44,236.186,362.354,235.338,362.454,235.367Z" transform="translate(-211.029 -123.156)" fill="#263238"/><path d="M362.549,210.87c.1.086-.56.862-1.207,2.371a28.6,28.6,0,0,0-1.595,6.279l-.129.747-.517-.56-.675-.718a70.185,70.185,0,0,1-6.725-7.731,71.979,71.979,0,0,1,7.285,7.185l.661.733-.632.187A21.556,21.556,0,0,1,360.9,213,5.289,5.289,0,0,1,362.549,210.87Z" transform="translate(-215.621 -132.643)" fill="#263238"/><path d="M372.251,211.255a44.936,44.936,0,0,1-5.748,5.978c-.23.158-.345.431-.862.589a.79.79,0,0,1-.719-.216,1.049,1.049,0,0,1-.273-.532,9.033,9.033,0,0,1,0-1.609,7.975,7.975,0,0,0-.517-2.472c-.517-1.351-1.15-2.055-1.049-2.141s.848.532,1.538,1.94a7.3,7.3,0,0,1,.718,2.63q-.035.718,0,1.437c.086.23.1.2.144.2a3.525,3.525,0,0,0,.489-.4,46.974,46.974,0,0,1,6.279-5.4Z" transform="translate(-210.652 -132.654)" fill="#263238"/><path d="M393,268.84c4.153,9.441,7.745,18.68,11.9,28.063,2.1,4.728,4.469,9.786,8.981,12.315,1.825,1.035,4.469,1.437,5.748-.23s.4-4.009-.56-5.848a145.375,145.375,0,0,0-25.046-34.214" transform="translate(-197.576 -107.314)" fill="#008ad8"/><g transform="translate(195.424 161.526)" opacity="0.5"><path d="M393,268.84c4.153,9.441,7.745,18.68,11.9,28.063,2.1,4.728,4.469,9.786,8.981,12.315,1.825,1.035,4.469,1.437,5.748-.23s.4-4.009-.56-5.848a145.375,145.375,0,0,0-25.046-34.214" transform="translate(-393 -268.84)"/></g><path d="M388.062,311.194l-3.492-17.962s18.68-11.064,20.117-12.185L385,251.417l23.566-11.237s26.957,42.49,24.212,48.942c-4.052,9.57-29.385,17.717-40.033,20.764h0l6.495,9.1,6.006,4.728-.977,3.2s-14.93-5.13-14.6-5.245-.7-5.331-1.595-10.5Z" transform="translate(-201.259 -119.836)" fill="#b76f4f"/><path d="M372.13,211.131l11.151,230.428s24.787-9.9,31.613-8.234,14.01,4.411,20.218,2.055l-42.5-105.745.4-58.34,12.932,20.117-3.822,2.644,27.575,38.036s9.11-17.574,10.72-30.1-15.548-43.008-15.548-43.008S401.113,210.7,372.13,211.131Z" transform="translate(-206.695 -132.53)" fill="#008ad8"/><g transform="translate(176.083 292.303)" opacity="0.5"><path d="M380.043,376.576s24.787-9.9,31.613-8.248,14.01,4.411,20.218,2.069l-3.937-9.757s-22.833-1.322-27.949-.546-20.448,7.372-20.448,7.372Z" transform="translate(-379.54 -359.85)"/></g><path d="M413.733,288.257c-.115,0-.848-1.336-2.27-3.449a67.908,67.908,0,0,0-6.179-7.745c-2.615-2.874-5.116-5.331-6.869-7.185a21.991,21.991,0,0,0-1.969-2.256c-.517-.474-.891-.589-.876-.647s.445,0,1.063.417a15.517,15.517,0,0,1,2.17,2.141c1.8,1.753,4.411,4.182,7.027,7.084a50.871,50.871,0,0,1,6.078,7.961,15.189,15.189,0,0,1,1.825,3.679Z" transform="translate(-196.453 -108.136)" fill="#263238"/><path d="M414.2,279.546c-.144.158-3.923-3.133-9.01-6.6s-9.527-5.82-9.412-6.021a12.933,12.933,0,0,1,3.018,1.308,65.827,65.827,0,0,1,6.811,4.1,62.024,62.024,0,0,1,6.279,4.871,12.1,12.1,0,0,1,2.313,2.342Z" transform="translate(-196.362 -108.148)" fill="#263238"/><path d="M322.756,438c8.622,6.869,15.519-1.811,28.9,0s23.178,2.529,23.178,2.529L379.142,217.4c-12.315-2.73-57.722,17.43-57.722,17.43L295.167,200.44,269,213.229s32.647,50.451,35.521,53.454,57.363-6.667,57.363-6.667a661.252,661.252,0,0,1-10.734,81.819Z" transform="translate(-251.757 -137.2)" fill="#008ad8"/><g transform="translate(71.014 291.629)" opacity="0.5"><path d="M358.495,371.076s-9.786-.733-23.178-2.529-20.318,6.869-28.9,0l2.084-7.113s9.311,1.825,16.4-.316,12.674-2,16.008-1.193,17.588,3.061,17.588,3.061Z" transform="translate(-306.42 -359.381)"/></g><path d="M336.052,229.26a71.128,71.128,0,0,1-1.02,10.475,71.708,71.708,0,0,1-1.782,10.36,74.724,74.724,0,0,1,1.035-10.461A75.5,75.5,0,0,1,336.052,229.26Z" transform="translate(-223.683 -124.608)" fill="#263238"/><g transform="translate(17.186 63.24)" opacity="0.5"><path d="M268.96,213.229,273.8,220.7l26.655-13.277-5.331-6.984Z" transform="translate(-268.96 -200.44)"/></g><path d="M299.08,235.7a21.4,21.4,0,0,1,8.507-11.208c.144.172-2.27,2.227-4.613,5.331S299.3,235.784,299.08,235.7Z" transform="translate(-238.613 -126.692)" fill="#263238"/><path d="M302.332,236.205a13.033,13.033,0,0,1,1.135-6.437,13.177,13.177,0,0,1,3.521-5.518c.187.129-1.552,2.472-2.874,5.748S302.562,236.22,302.332,236.205Z" transform="translate(-237.21 -126.797)" fill="#263238"/><path d="M295.492,209.683s-3.952-7.918-4.5-9.125a106.813,106.813,0,0,1-3.434-10.6s-2.357-.517-2.2,4.742-.92,3.808-.92,3.808-10.921-13.277-13.565-12.4c-.992.331.374,3.477,2.17,5.187a36.152,36.152,0,0,1,3.779,4.455s-10.274-9.268-12.631-7.8c0,0-1.164.905,2.112,3.635a73.91,73.91,0,0,1,7.6,7.343s-10.188-7.185-11.338-6.409c-1.911,1.293,8.42,8.622,10.13,11.352,0,0-7.688-5.891-7.889-4.009s9.354,8.535,13.723,18.177Z" transform="translate(-254.668 -143.483)" fill="#b76f4f"/><path d="M282.884,195.62c.072.115-.69.517-1.566,1.437a7.386,7.386,0,0,0-1.854,4.627v.905l-.618-.675h0a9.038,9.038,0,0,0-4.311-2.687c-1.293-.345-2.141-.331-2.155-.445a4.038,4.038,0,0,1,2.27,0,8.363,8.363,0,0,1,4.756,2.7h0l-.632.23a7.185,7.185,0,0,1,2.213-4.972A3.679,3.679,0,0,1,282.884,195.62Z" transform="translate(-250.28 -139.307)" fill="#754330"/><path d="M358.884,318.114c-2.371,9.01-9.972,30.391-6.984,36.958,5.1,11.266,1.035,27.374,1.035,27.374l-31.455-5.116s6.8-15.591,5.59-31.11,7.817-30,11.826-39.1,10.849-83.242,11.151-89.708c.2-4.469,6.251-6.9,10.059-7.989,1.681-.489,2.874-.7,2.874-.7S363.008,302.524,358.884,318.114Z" transform="translate(-228.826 -133.583)" fill="#455a64"/><path d="M353.293,327.622a10.949,10.949,0,0,0-3.161-3.521,8.291,8.291,0,0,0-4.8-1.437,29.386,29.386,0,0,0-6.208,1.322,16.539,16.539,0,0,1-11.639-1.308,14.283,14.283,0,0,1-2.974-2.026,3.949,3.949,0,0,1-.891-.963,34.29,34.29,0,0,0,4.1,2.515,16.913,16.913,0,0,0,11.222,1.063,26.886,26.886,0,0,1,6.394-1.293,8.449,8.449,0,0,1,5.1,1.667,8.305,8.305,0,0,1,2.4,2.7,3.478,3.478,0,0,1,.46,1.279Z" transform="translate(-227.891 -85.095)" fill="#263238"/><path d="M353.073,318.411a7.832,7.832,0,0,0-3.765-1.825,11.411,11.411,0,0,0-4.555.23c-1.71.388-3.521,1.092-5.518,1.667a15.088,15.088,0,0,1-5.848.575,14.141,14.141,0,0,1-4.613-1.279,12.458,12.458,0,0,1-2.745-1.7c-.589-.489-.848-.8-.819-.833a33.511,33.511,0,0,0,3.765,2.055,15.03,15.03,0,0,0,10.059.46c1.954-.56,3.793-1.25,5.561-1.624a11.379,11.379,0,0,1,4.814-.072,6.538,6.538,0,0,1,2.874,1.437C352.9,318.009,353.1,318.383,353.073,318.411Z" transform="translate(-227.197 -87.035)" fill="#263238"/><path d="M377.378,211.508s7.6-3.046,11.711.4c2.127,1.8,12.056,112.929,10.231,135.274s-6.581,33.265-6.581,33.265L360.12,374.7s10.389-33.739,13.191-57.981S377.378,211.508,377.378,211.508Z" transform="translate(-211.942 -132.907)" fill="#455a64"/><path d="M395.334,322.389a4.9,4.9,0,0,1-1.265.733,31.412,31.412,0,0,1-3.65,1.538,14.542,14.542,0,0,1-5.863.862,17.373,17.373,0,0,1-6.869-2.371,48.74,48.74,0,0,0-6.323-3.219,10.259,10.259,0,0,0-5.561-.661,7.184,7.184,0,0,0-3.449,1.566c-.675.6-.948,1.049-1.006,1.02a2.874,2.874,0,0,1,.8-1.221,6.94,6.94,0,0,1,3.535-1.882,10.533,10.533,0,0,1,5.92.517,46.5,46.5,0,0,1,6.438,3.233,17.444,17.444,0,0,0,6.567,2.342,15.015,15.015,0,0,0,5.647-.69C393.336,323.164,395.2,322.259,395.334,322.389Z" transform="translate(-211.405 -85.595)" fill="#263238"/><path d="M395.561,317.476a5.364,5.364,0,0,1-1.207.819,33.763,33.763,0,0,1-3.492,1.839,18.882,18.882,0,0,1-5.662,1.638,10.878,10.878,0,0,1-7.055-1.581c-2.227-1.336-3.995-2.989-5.834-4.11a9.154,9.154,0,0,0-5.3-1.667,5.618,5.618,0,0,0-3.477,1.308c-.675.589-.891,1.078-.963,1.035s0-.129.129-.359a3.233,3.233,0,0,1,.632-.891,5.748,5.748,0,0,1,3.65-1.624,9.469,9.469,0,0,1,5.748,1.609c1.925,1.15,3.722,2.788,5.848,4.067a10.489,10.489,0,0,0,6.61,1.523,19.411,19.411,0,0,0,5.518-1.437C393.693,318.366,395.489,317.361,395.561,317.476Z" transform="translate(-210.885 -87.637)" fill="#263238"/><path d="M274.674,199.628a7.831,7.831,0,0,0-3.247,6.265,41.585,41.585,0,0,0,.6,7.3,12.271,12.271,0,0,1-.963,7.185,9.383,9.383,0,0,1-5.058,4.11,19.873,19.873,0,0,1-6.553,1.049,9.109,9.109,0,0,0,3.98,1.925L257,230.12c3.693,2.055,8.334,1.437,12.286,0a19.729,19.729,0,0,0,8.248-5.618,12.343,12.343,0,0,0,2.874-9.369c-.374-2.644-1.767-5.044-2.184-7.659a10.863,10.863,0,0,1,4.052-10.174" transform="translate(-257 -138.572)" fill="#008ad8"/><path d="M274.51,171.835l-8.88,81.072c2.256,4.914,6.653,5.475,12.789,2.414l8.622-83.084C283.592,167.9,279.31,168.315,274.51,171.835Z" transform="translate(-253.229 -150.899)" fill="#fafafa"/><path d="M274.593,171.889l.172-.158.56-.431a16.341,16.341,0,0,1,2.385-1.437,8.449,8.449,0,0,1,4.411-.877,7.831,7.831,0,0,1,5.173,3.176h0v.086c-1.624,16.654-4.742,47.419-8.392,82.423v.877l-.172.1a14.8,14.8,0,0,1-7.472,1.868,6.466,6.466,0,0,1-3.592-1.437,8.521,8.521,0,0,1-2.227-3.046v-.2c2.586-22.991,4.843-43.281,6.481-57.851.833-7.185,1.509-12.932,1.969-17.042.244-1.954.431-3.492.56-4.569l.172-1.178c0-.259,0-.4.072-.388s0,.144,0,.417a5.912,5.912,0,0,1-.1,1.207c-.115,1.106-.259,2.658-.445,4.627-.417,4.067-1.02,9.886-1.767,17.114-1.552,14.556-3.722,34.788-6.179,57.751v-.2a8.048,8.048,0,0,0,2.04,2.788,5.748,5.748,0,0,0,3.19,1.265,14.269,14.269,0,0,0,7.055-1.811l-.2.3.072-.675c3.65-35.061,6.912-65.769,8.751-82.394v.144a7.558,7.558,0,0,0-4.9-3.133,8.377,8.377,0,0,0-4.311.776A28.145,28.145,0,0,0,274.593,171.889Z" transform="translate(-253.312 -150.954)" fill="#263238"/><path d="M278.243,231.123c-.129,0-.3-.891-1.106-2.084a6.9,6.9,0,0,0-9.757-1.94c-1.207.79-1.724,1.581-1.825,1.509s.3-.963,1.509-1.94a7,7,0,0,1,10.518,2.1,3.822,3.822,0,0,1,.661,2.357Z" transform="translate(-253.269 -126.413)" fill="#263238"/><path d="M276.185,228.353a4.681,4.681,0,0,1-2.069,1.753,6.868,6.868,0,0,1-2.874.69,7.184,7.184,0,0,1-1.782-.23,3.176,3.176,0,0,1-1.724-1.063,1.94,1.94,0,0,1-.23-2.127,2.04,2.04,0,0,1,1.739-.934,2.313,2.313,0,0,1,2.428,1.868,1.437,1.437,0,0,1-.5,1.193,1.02,1.02,0,0,1-.963.144c-.532-.216-.532-.6-.474-.589a.969.969,0,0,0,.546.3.718.718,0,0,0,.618-.172.92.92,0,0,0,.244-.819,1.768,1.768,0,0,0-1.868-1.236,1.437,1.437,0,0,0-1.135.6,1.207,1.207,0,0,0,.187,1.308,4.009,4.009,0,0,0,2.874,1.063,7.272,7.272,0,0,0,2.7-.474,19.012,19.012,0,0,0,2.285-1.279Z" transform="translate(-252.504 -125.842)" fill="#263238"/><path d="M282.229,169.69a2.714,2.714,0,0,1,0,.819c-.072.618-.172,1.437-.3,2.342-.287,2.127-.7,5.044-1.193,8.622-1.006,7.357-2.357,17.243-3.865,28.337s-2.874,21.08-4.081,28.322c-.575,3.607-1.063,6.538-1.437,8.622l-.431,2.313a5.567,5.567,0,0,1-.2.8,3.063,3.063,0,0,1,0-.833c.086-.618.187-1.437.3-2.328.3-2.141.7-5.044,1.207-8.622.991-7.343,2.357-17.243,3.865-28.336s2.874-21.08,4.081-28.308c.575-3.621,1.063-6.538,1.437-8.55.187-.934.331-1.71.445-2.314A3.878,3.878,0,0,1,282.229,169.69Z" transform="translate(-251.018 -150.636)" fill="#263238"/><path d="M268.76,203.523s7.185-5.1,12.07,1.538l.833-8.492s-5.015-6.05-12.128-.733Z" transform="translate(-251.862 -140.168)" fill="#008ad8"/></g><g transform="translate(192.649 168.482)"><path d="M182.5,467.682l-.244-12.932-24.155.287.144,18.867,1.509.086c6.667.287,33.941,1.006,38.381-.4C203.076,472.065,182.5,467.682,182.5,467.682Z" transform="translate(18.849 -32.979)" fill="#008ad8"/><g transform="translate(176.964 433.839)" opacity="0.4"><path d="M167,469.991a8.449,8.449,0,0,0-3.147-5.116,8.19,8.19,0,0,0-5.748-1.7l.086,6.754Z" transform="translate(-158.11 -463.148)"/></g><g transform="translate(177.093 437.204)" opacity="0.4"><path d="M192.514,465.49s7.185,1.983,6.337,3.19-28.466,1.509-40.651.575v-.532l32.188-.1S191.106,465.562,192.514,465.49Z" transform="translate(-158.2 -465.49)"/></g><path d="M158,467.879h1.609l4.4.129c3.707.1,8.837.158,14.5.1s10.791-.23,14.5-.4l4.4-.23,1.193-.086h-1.207l-4.383.144c-3.722.115-8.837.244-14.5.3s-10.791,0-14.5,0H158Z" transform="translate(18.806 -27.456)" fill="#263238"/><path d="M180.63,469.083a9.745,9.745,0,0,1,.79-2.1,10.062,10.062,0,0,1,1.437-1.7,3.219,3.219,0,0,0-1.724,1.537,3.291,3.291,0,0,0-.5,2.256Z" transform="translate(28.68 -28.373)" fill="#263238"/><path d="M175.634,466.087a3.012,3.012,0,0,0,.747-.934c.345-.56.575-1.049.5-1.092s-.4.374-.747.934S175.562,466.044,175.634,466.087Z" transform="translate(26.505 -28.912)" fill="#263238"/><path d="M174.262,465.193a3.893,3.893,0,0,0,.848-.575c.417-.374.7-.733.647-.8s-.431.2-.848.589S174.2,465.135,174.262,465.193Z" transform="translate(25.908 -29.023)" fill="#263238"/><path d="M173.38,463.387a2.774,2.774,0,0,0,1.264.144.647.647,0,1,0,0-.287,2.772,2.772,0,0,0-1.264.144Z" transform="translate(25.526 -29.487)" fill="#263238"/><path d="M173.07,462.082a2.515,2.515,0,0,0,1.437.388,2.443,2.443,0,0,0,1.437-.216,7,7,0,0,0-1.437-.072,6.436,6.436,0,0,0-1.437-.1Z" transform="translate(25.39 -29.778)" fill="#263238"/><path d="M176.18,464.655a4.553,4.553,0,0,0,1.552,0,8.623,8.623,0,0,0,1.653-.388,3.752,3.752,0,0,0,.948-.4.848.848,0,0,0,.374-.474.618.618,0,0,0-.244-.618,2.874,2.874,0,0,0-3.506.862,2.946,2.946,0,0,0-.5,1.049.848.848,0,0,0,0,.417,4.47,4.47,0,0,1,.69-1.336,2.875,2.875,0,0,1,1.322-.877A2.4,2.4,0,0,1,180.3,463c.259.172.158.46-.115.632a4.309,4.309,0,0,1-.862.388,11.745,11.745,0,0,1-1.6.431A8.421,8.421,0,0,1,176.18,464.655Z" transform="translate(26.749 -29.592)" fill="#263238"/><path d="M177.084,464.959a1.538,1.538,0,0,0,.172-1.078,2.529,2.529,0,0,0-.445-1.135,1.552,1.552,0,0,0-1.293-.776.618.618,0,0,0-.474.718,1.653,1.653,0,0,0,.273.69,4.312,4.312,0,0,0,.747.934,2.185,2.185,0,0,0,.891.618,8.726,8.726,0,0,1-.747-.762,5.652,5.652,0,0,1-.661-.92c-.216-.331-.359-.92,0-.991s.79.345,1.02.647a2.515,2.515,0,0,1,.46,1.006,5.387,5.387,0,0,1,.057,1.049Z" transform="translate(26.248 -29.824)" fill="#263238"/><path d="M158.25,463.19a11.649,11.649,0,0,1,1.782,0,7.587,7.587,0,0,1,6.394,4.972c.374,1.035.417,1.739.474,1.724a1.436,1.436,0,0,0,0-.489,6.151,6.151,0,0,0-.287-1.293,7.639,7.639,0,0,0-7.889-5.116A2.136,2.136,0,0,0,158.25,463.19Z" transform="translate(18.915 -29.392)" fill="#263238"/><path d="M159.96,456.11a44.917,44.917,0,0,0-.144,4.957,41.373,41.373,0,0,0,.144,4.972,45.294,45.294,0,0,0,.144-4.972,41.028,41.028,0,0,0-.144-4.957Z" transform="translate(19.59 -32.384)" fill="#263238"/><path d="M166.39,466.254a13.508,13.508,0,0,0,3.535.316,12.933,12.933,0,0,0,3.535-.331c0-.072-1.581,0-3.535,0S166.4,466.168,166.39,466.254Z" transform="translate(22.472 -27.972)" fill="#263238"/><path d="M163.1,466.283s.129.331.3.69.259.675.33.675.129-.388,0-.8S163.143,466.225,163.1,466.283Z" transform="translate(21.034 -27.944)" fill="#263238"/><path d="M161.84,464.743a1.481,1.481,0,0,0,.359.56c.259.244.5.417.56.359s-.1-.316-.359-.56S161.9,464.686,161.84,464.743Z" transform="translate(20.484 -28.617)" fill="#263238"/><path d="M160.052,464.1c0,.086.345.072.7.2s.618.3.675.244-.144-.388-.589-.532S159.981,464.019,160.052,464.1Z" transform="translate(19.699 -28.955)" fill="#263238"/><path d="M158.78,463.756c0,.072.115.2.316.273s.388.072.417,0-.115-.2-.316-.273S158.809,463.685,158.78,463.756Z" transform="translate(19.147 -29.067)" fill="#263238"/><path d="M48.041,351.816l11.352,6.251L71.233,337,54.809,327.69l-.8,1.265c-3.592,5.633-17.847,28.883-18.853,33.438C33.959,367.465,48.041,351.816,48.041,351.816Z" transform="translate(-34.903 -88.496)" fill="#008ad8"/><g transform="translate(15.71 239.38)" opacity="0.4"><path d="M45.89,335.364a8.335,8.335,0,0,0,6.006-.172,8.162,8.162,0,0,0,4.311-4.052l-5.848-3.319Z" transform="translate(-45.89 -327.82)"/></g><g transform="translate(0 239.193)" opacity="0.4"><path d="M40.9,359.288s-5.331,5.259-5.92,3.894,12.932-25.405,19.815-35.493l.46.3L39.229,355.9S41.542,358.038,40.9,359.288Z" transform="translate(-34.957 -327.69)"/></g><path d="M55.333,327.67a1.711,1.711,0,0,0-.244.345c-.2.3-.417.632-.647,1.006l-2.3,3.736c-1.926,3.161-4.541,7.573-7.328,12.5s-5.2,9.469-6.9,12.76l-2,3.923L35.388,363a1.939,1.939,0,0,0-.158.388,2.991,2.991,0,0,0,.216-.359l.575-1.049,2.069-3.865c1.753-3.276,4.21-7.774,6.984-12.717s5.36-9.355,7.185-12.545c.877-1.437,1.624-2.759,2.242-3.779l.589-1.035a2.643,2.643,0,0,0,.244-.374Z" transform="translate(-34.838 -88.505)" fill="#263238"/><path d="M37.71,347.19a10.5,10.5,0,0,1,1.437,1.739,9.946,9.946,0,0,1,.733,2.127,3.233,3.233,0,0,0-.474-2.27A3.3,3.3,0,0,0,37.71,347.19Z" transform="translate(-33.754 -79.976)" fill="#263238"/><path d="M42.33,344.1a5.3,5.3,0,0,0,.445,1.121c.316.589.618,1.02.69.977s-.129-.546-.431-1.121S42.4,344.058,42.33,344.1Z" transform="translate(-31.735 -81.327)" fill="#263238"/><path d="M43.642,343.27c-.086,0,0,.474,0,1.02s.287.963.374.948,0-.474-.086-1.02S43.713,343.242,43.642,343.27Z" transform="translate(-31.179 -81.689)" fill="#263238"/><path d="M45.814,343.29a3.19,3.19,0,0,0-.747,1.02c-.359.6-.575,1.135-.5,1.178a3.189,3.189,0,0,0,.747-1.02C45.671,343.865,45.886,343.333,45.814,343.29Z" transform="translate(-30.765 -81.68)" fill="#263238"/><path d="M47.045,343.59A3.277,3.277,0,0,0,46,344.61a2.443,2.443,0,0,0-.546,1.365,10.177,10.177,0,0,0,.79-1.207,8.017,8.017,0,0,0,.8-1.178Z" transform="translate(-30.372 -81.549)" fill="#263238"/><path d="M43.745,345.325A4.311,4.311,0,0,0,43,346.676a8.782,8.782,0,0,0-.489,1.624,4.4,4.4,0,0,0-.129,1.02.833.833,0,0,0,.23.56.618.618,0,0,0,.661.1,2.874,2.874,0,0,0,.991-3.477,2.63,2.63,0,0,0-.647-.948c-.2-.187-.33-.259-.345-.244a4.857,4.857,0,0,1,.8,1.265,2.874,2.874,0,0,1,.1,1.581,2.4,2.4,0,0,1-1.02,1.552c-.273.129-.489-.1-.489-.417a5.317,5.317,0,0,1,.1-.948,13.322,13.322,0,0,1,.417-1.595C43.5,345.857,43.788,345.339,43.745,345.325Z" transform="translate(-31.714 -80.798)" fill="#263238"/><path d="M43.15,345.758a1.651,1.651,0,0,0,.848.69,2.544,2.544,0,0,0,1.193.187,1.58,1.58,0,0,0,1.336-.733.632.632,0,0,0-.4-.776,1.912,1.912,0,0,0-.733-.115,4.6,4.6,0,0,0-1.178.187,2.242,2.242,0,0,0-.977.46,9.478,9.478,0,0,1,1.035-.259,5.174,5.174,0,0,1,1.121-.115c.4,0,.977.144.848.517s-.69.517-1.078.56a2.429,2.429,0,0,1-1.092-.1,4.8,4.8,0,0,1-.92-.5Z" transform="translate(-31.377 -80.929)" fill="#263238"/><path d="M56.149,330.23a9.826,9.826,0,0,1-.934,1.523,7.616,7.616,0,0,1-7.5,3.046,16.226,16.226,0,0,1-1.724-.46,2.187,2.187,0,0,0,.431.244,6.434,6.434,0,0,0,1.265.417,7.343,7.343,0,0,0,7.7-3.132,5.244,5.244,0,0,0,.618-1.178,1.581,1.581,0,0,0,.144-.46Z" transform="translate(-30.136 -87.387)" fill="#263238"/><path d="M60.891,336.7a38.8,38.8,0,0,0-4.21-2.615,42.37,42.37,0,0,0-4.311-2.371,41.882,41.882,0,0,0,4.225,2.615,43.1,43.1,0,0,0,4.3,2.371Z" transform="translate(-27.349 -86.74)" fill="#263238"/><path d="M47.347,335.72a13.076,13.076,0,0,0-2.04,2.874,13.578,13.578,0,0,0-1.437,3.219s.762-1.437,1.739-3.075A33.651,33.651,0,0,0,47.347,335.72Z" transform="translate(-31.063 -84.988)" fill="#263238"/><path d="M48.369,332.9c0-.086-.359,0-.762-.086s-.718-.129-.747,0,.273.287.733.331S48.384,332.973,48.369,332.9Z" transform="translate(-29.757 -86.293)" fill="#263238"/><path d="M50.236,332.52h-.661c-.345,0-.6.23-.575.316s.316,0,.661,0S50.265,332.606,50.236,332.52Z" transform="translate(-28.822 -86.386)" fill="#263238"/><path d="M51.678,331.32c-.086,0-.23.259-.517.5s-.575.374-.56.46.4.072.747-.244S51.75,331.334,51.678,331.32Z" transform="translate(-28.122 -86.91)" fill="#263238"/><path d="M52.448,330.38a.69.69,0,0,0-.388.129c-.158.129-.273.3-.216.374s.23,0,.388-.144S52.491,330.437,52.448,330.38Z" transform="translate(-27.585 -87.321)" fill="#263238"/><path d="M182.8,300.07s19.758,95.887,19.485,111.205c-.1,6.409,0,119.9,0,119.9l-42,1.049V408.875c0,6.035-23.307-108.805-23.307-108.805Z" transform="translate(9.621 -100.565)" fill="#263238"/><path d="M137.3,388.086l14.369-57.262c-2.658-7-.819-20.62,2.371-34.084l1.092-4.569,52.822,9.11,14.369,2.472-8.277,10.533c-20.117,47.965-33.854,79.75-43.022,99.609-7.027,15.246-22.876,17.042-38.467,10.791L46.34,374.708,63.813,343.44Z" transform="translate(-29.983 -104.017)" fill="#263238"/><path d="M68.914,330.74a5.561,5.561,0,0,1-.589,1.322c-.417.819-1.035,2-1.839,3.449-1.581,2.874-3.822,6.84-6.38,11.179s-4.914,8.234-6.7,11.007c-.891,1.437-1.638,2.5-2.17,3.247a4.9,4.9,0,0,1-.92,1.106A5.445,5.445,0,0,1,51,360.787c.546-.948,1.207-2.069,1.969-3.362l6.495-11.108,6.581-11.079,2.04-3.319C68.54,331.114,68.857,330.712,68.914,330.74Z" transform="translate(-28.244 -87.164)" fill="#455a64"/><path d="M143.733,378.511a2.616,2.616,0,0,1-.259.517l-.848,1.437c-.79,1.336-1.9,3.161-3.262,5.432v.129h-.129a17.93,17.93,0,0,1-3.506-1.351c-1.207-.575-2.486-1.207-3.822-1.882-2.687-1.437-5.633-2.96-8.794-4.684-6.337-3.477-13.522-7.558-21.152-11.941-12.142-7.012-23.063-13.493-30.952-18.22l-9.3-5.647L59.2,340.719c-.56-.374-.848-.575-.848-.589a4.414,4.414,0,0,1,.934.46l2.572,1.437,9.426,5.446,31.052,18.019c7.616,4.4,14.8,8.507,21.094,12.027,3.147,1.753,6.078,3.362,8.722,4.756,1.336.7,2.6,1.351,3.779,1.94a18.923,18.923,0,0,0,3.362,1.437l-.2.1,3.42-5.331.934-1.437C143.589,378.654,143.7,378.5,143.733,378.511Z" transform="translate(-24.736 -83.061)" fill="#455a64"/><path d="M160.085,496.671a.919.919,0,0,1,0-.345V491.4c0-3.449.129-8.334.23-14.369.259-12.171.632-28.883,1.035-47.347s1.293-35.191-.144-47.275a89.192,89.192,0,0,0-2.515-14.082c-.431-1.638-.819-2.874-1.092-3.736-.115-.388-.216-.719-.287-.977a1.178,1.178,0,0,1-.072-.331,1.84,1.84,0,0,1,.144.3l.359.963c.33.833.747,2.069,1.221,3.707a82.409,82.409,0,0,1,2.773,14.1c1.523,12.1.661,28.9.287,47.419s-.934,35.162-1.265,47.333c-.187,6.006-.345,10.892-.46,14.369,0,1.638-.129,2.946-.172,3.894v1.02a1.077,1.077,0,0,1-.043.287Z" transform="translate(18.474 -72.946)" fill="#455a64"/><path d="M194.867,456.224c0,.2-9.326.374-20.821.374s-20.836-.172-20.836-.374,9.326-.374,20.836-.374S194.867,456.065,194.867,456.224Z" transform="translate(16.713 -32.498)" fill="#455a64"/><path d="M207.219,224.214s-.144-2-.072-7.745l-4.584-12.932s1.724-2.371,4.2,3.463a3.1,3.1,0,0,0,5.863-1.7A4.986,4.986,0,0,0,204,202.315s-2.026,0-2.04-1.652,4.986-4.814,8.622-3.19a11.624,11.624,0,0,1,3.908,2.96s.891-12.932,1.94-12.932,2.4,1.006,1.308,15.145c0,0,1.911-11.021,2.313-12.4s2.443-2.1,2.213,1.437l-.79,11.381s2.2-7.041,2.414-7.587c.56-1.437,2.04-1.121,1.911.92-.1,1.538-.474,8.1-.474,8.1l-1.753,20.218h.115" transform="translate(38.014 -149.751)" fill="#ffbe9d"/><path d="M217.485,201.443c.072.1-.532.5-1.178,1.437a5.949,5.949,0,0,0-1.078,4.081l.23,1.782-.92-1.552-.129-.216a10.461,10.461,0,0,0-2.874-3.549c-.948-.661-1.71-.747-1.7-.862s.833-.2,1.969.417a8.981,8.981,0,0,1,3.219,3.621l.129.216-.69.23a5.877,5.877,0,0,1,1.437-4.5C216.723,201.63,217.456,201.372,217.485,201.443Z" transform="translate(41.457 -143.664)" fill="#eb996e"/><path d="M154.147,222.11s-11.151,1.178-19.614,1.983c-9.886.948-20.117,11.064-15.1,31.153,2.63,10.648,9.254,17.243,7.76,30.176l-6.251,41.743,70.669,6.165L190.3,271.153l2.371-24.9c2.486-31.21-21.454-25.865-21.454-25.865l-17.1,1.753" transform="translate(1.378 -135.534)" fill="#008ad8"/><path d="M134.981,255.691C143,306.976,116.6,353.4,87.03,390.189a152.575,152.575,0,0,0,58.987,38.654c4.656,1.71,9.671,3.19,14.527,2.184,6.466-1.336,11.194-6.725,16.913-10.059,19.6-11.352,46.887,3.018,66.286-8.622C217.691,355.127,208.365,298.7,205.405,235.89" transform="translate(-12.204 -128.608)" fill="#008ad8"/><g transform="translate(74.783 255.517)" opacity="0.5"><path d="M243.756,367.257c-19.4,11.682-46.686-2.687-66.286,8.622-5.748,3.3-10.447,8.693-16.913,10.059-4.857,1.006-9.872-.474-14.527-2.184A152.574,152.574,0,0,1,87,345.114l4.771-6.064s54.144,41.6,66.315,36.6,18.393-10.188,25.736-12.013,54.6-1.926,56.745-3.578Z" transform="translate(-87 -339.05)"/></g><g transform="translate(130.824 84.519)" opacity="0.5"><path d="M126,225.439s30.765,33.05,30.837,32.82,19.427-37.748,19.427-37.748C175.431,218.829,129.592,222.033,126,225.439Z" transform="translate(-126 -220.049)"/></g><path d="M128.12,224.44l26.856,25.147L171.243,220a267.265,267.265,0,0,0-43.123,4.44Z" transform="translate(5.75 -135.551)" fill="#fff"/><path d="M168.2,226.859l47.75,22.6,5.935-39.846,30.434-2.026-10.274,48.583c0,12.645-9.024,19.571-18.58,22.2h0c-5.748,1.566-15.663-2.04-20.951-4.742-10.5-5.4-32.389-15.145-33.05-15.375C164.22,256.345,137.378,216.442,168.2,226.859Z" transform="translate(16.896 -140.973)" fill="#008ad8"/><g transform="translate(237.244 66.674)" opacity="0.5"><path d="M229.647,218.881l-29.587.963,1.538-10.188,30.434-2.026Z" transform="translate(-200.06 -207.63)"/></g><path d="M142.87,326.59c.216,0-1.437,13.608-3.564,30.334S135.2,387.186,135,387.1s1.437-13.608,3.564-30.334S142.668,326.576,142.87,326.59Z" transform="translate(8.747 -88.977)" fill="#263238"/><path d="M146.784,341.34a25.12,25.12,0,0,1-.431,4.311c-.374,2.63-.992,6.265-1.839,10.245s-1.724,7.558-2.457,10.13a24.226,24.226,0,0,1-1.336,4.1,24.93,24.93,0,0,1,.833-4.225c.589-2.6,1.437-6.179,2.242-10.145s1.523-7.587,2.04-10.188a24.587,24.587,0,0,1,.948-4.225Z" transform="translate(11.255 -82.532)" fill="#263238"/><path d="M168.561,311.13a15.017,15.017,0,0,1-.56,2.385c-.445,1.638-1.02,3.822-1.724,6.452-1.437,5.46-3.19,13.047-4.728,21.554s-2.486,16.209-3.046,21.813c-.273,2.716-.489,4.957-.647,6.653a14.367,14.367,0,0,1-.3,2.443,16.921,16.921,0,0,1,0-2.457c0-1.581.187-3.865.4-6.682a217.867,217.867,0,0,1,2.874-21.9c1.552-8.492,3.406-16.079,4.957-21.554.776-2.716,1.437-4.914,1.94-6.409A16.985,16.985,0,0,1,168.561,311.13Z" transform="translate(18.591 -95.732)" fill="#263238"/><g transform="translate(155.007 157.015)" opacity="0.2"><path d="M144.712,350.811l-1.882,3.362,30.578,5.331s16.338-32.662,2.6-89Z" transform="translate(-142.83 -270.5)"/></g><g transform="translate(94.641 89.91)" opacity="0.2"><path d="M100.82,368.126l27.561,13.162s13.981-21.8,21.554-44.991c13.148-40.594.718-112.5.718-112.5C141.715,296.725,120.406,337.247,100.82,368.126Z" transform="translate(-100.82 -223.8)"/></g><path d="M145.616,229.079,109.147,267.2l-19.8-35L60.19,241.164l26.943,41.671c4.469,11.84,15.418,15.074,25.276,14.111h0c5.92-.575,13.91-7.486,17.876-11.912,7.889-8.794,24.859-25.707,25.333-26.138C159.828,255.217,170.705,208.287,145.616,229.079Z" transform="translate(-23.932 -133.896)" fill="#008ad8"/><path d="M66.426,248.277l27.992-9.671-5.072-8.967L60.19,238.607Z" transform="translate(-23.932 -131.339)" opacity="0.5"/><path d="M150.289,179.26a16.209,16.209,0,0,1,3.822,8.507c.273,2.055.259,4.4,1.782,5.748,1.839,1.7,5.058,1.106,6.883,2.874,2.63,2.5.273,7.486,2.572,10.274,1.523,1.854,4.311,1.825,6.495,2.874a7.587,7.587,0,0,1,3.837,8.449c-.69,2.874-2.874,5.087-4.957,7.185l-4.771,4.742a5.432,5.432,0,0,1-3,1.854c-2.141.216-3.707-2.069-5.748-2.543-2.587-.589-4.871,1.667-7.4,2.457a6.94,6.94,0,0,1-8.88-5.417" transform="translate(11.343 -153.352)" fill="#263238"/><path d="M165.671,240.016c-2.184-6.308-4.311-12.932-4.311-12.932s7.645-4.182,5.618-15.361c-1.925-10.648-11.74-33.38-11.74-33.38h0A32.231,32.231,0,0,0,124,197.884h0L142.68,248.8a11.639,11.639,0,0,0,15.275,6.409h0C164.234,252.819,167.741,246.022,165.671,240.016Z" transform="translate(3.95 -153.77)" fill="#ffbe9d"/><path d="M149.144,191.583a1.439,1.439,0,1,1-1.825-.733,1.437,1.437,0,0,1,1.825.733Z" transform="translate(13.738 -148.331)" fill="#263238"/><path d="M150.863,190.346c-.1.23-1.437-.172-2.874.345s-2.27,1.624-2.5,1.437,0-.431.3-.934a4,4,0,0,1,1.925-1.437,3.779,3.779,0,0,1,2.357,0C150.661,189.973,150.92,190.188,150.863,190.346Z" transform="translate(13.298 -148.848)" fill="#263238"/><path d="M138.6,195.493a1.439,1.439,0,1,1-1.825-.733A1.437,1.437,0,0,1,138.6,195.493Z" transform="translate(9.132 -146.622)" fill="#263238"/><path d="M140.376,194.422c-.1.23-1.437-.172-2.874.345s-2.27,1.624-2.486,1.437,0-.431.3-.934a3.908,3.908,0,0,1,4.311-1.437C140.175,194.034,140.434,194.307,140.376,194.422Z" transform="translate(8.725 -147.06)" fill="#263238"/><path d="M146.549,204.057a10.792,10.792,0,0,1,2.227-1.25c.359-.172.675-.374.661-.647a2.127,2.127,0,0,0-.647-1.02l-2.1-2.457a51.73,51.73,0,0,1-5.072-6.552,51.986,51.986,0,0,1,5.59,6.136l2.055,2.486a2.3,2.3,0,0,1,.718,1.437,1.035,1.035,0,0,1-.431.762,3.075,3.075,0,0,1-.6.316,9.93,9.93,0,0,1-2.4.79Z" transform="translate(11.649 -147.728)" fill="#263238"/><path d="M154.715,212.22a28.61,28.61,0,0,1-15.5,1.178s5.992,6.064,16.237,1.437Z" transform="translate(10.596 -138.95)" fill="#eb996e"/><path d="M146.741,203.126a2.874,2.874,0,0,0-2.7-.144,2.515,2.515,0,0,0-1.351,1.437,1.609,1.609,0,0,0,.489,1.782,1.868,1.868,0,0,0,2.084-.187,5.892,5.892,0,0,0,1.437-1.767,1.437,1.437,0,0,0,.259-.575.517.517,0,0,0-.187-.546" transform="translate(12.074 -143.105)" fill="#eb996e"/><path d="M142.323,202.181c.244-.086.79,1.437,2.543,2.141s3.377-.115,3.463.1-.259.445-.963.718a4.311,4.311,0,0,1-2.874,0,3.679,3.679,0,0,1-2.026-1.782C142.179,202.67,142.223,202.21,142.323,202.181Z" transform="translate(11.923 -143.338)" fill="#263238"/><path d="M131.125,199.11a6.538,6.538,0,0,0-3.334,1.437,4.67,4.67,0,0,0-1.71,3.133,4.842,4.842,0,0,0,1.164,3.391,8.09,8.09,0,0,0,2.874,2.17,5.6,5.6,0,0,0,2.529.647,2.658,2.658,0,0,0,2.227-1.193" transform="translate(4.857 -144.679)" fill="#ffbe9d"/><path d="M132.174,205.559c.144,0-.115.862-1.236.948a2.385,2.385,0,0,1-1.681-.675,5.1,5.1,0,0,1-1.207-1.681,3.075,3.075,0,0,1-.23-2.155A2.155,2.155,0,0,1,129,200.559c1.063-.388,1.652.23,1.538.3a2.214,2.214,0,0,0-1.236.287,2.012,2.012,0,0,0-.417,2.6c.532,1.121,1.351,2.026,2.069,2.069A2.7,2.7,0,0,0,132.174,205.559Z" transform="translate(5.576 -144.101)" fill="#eb996e"/><path d="M156.725,177.839a8.162,8.162,0,0,1-.431,9.757c-2.3,2.673-6.021,3.492-9.268,4.9s-6.509,4.311-5.906,7.831c.359,2.112,2.127,3.952,1.839,6.078-.316,2.472-3.247,3.894-3.822,6.337-.905,3.909,4.613,6.624,4.9,10.633.158,2.385-1.581,4.555-1.509,6.94.115,3.391,3.865,6.538,2.4,9.6-1.135,2.342-4.44,2.457-6.955,1.811s-5.317-1.638-7.6-.388a21.668,21.668,0,0,0-3.406,3.2,7.185,7.185,0,0,1-12-5.863,19.944,19.944,0,0,1,1.911-5.963,8.018,8.018,0,0,0,.417-6.107,13.68,13.68,0,0,0-3.118-3.65,4.728,4.728,0,0,1-1.652-4.311c.747-2.716,4.9-3.032,6.093-5.59,1.638-3.506-3.664-7.041-2.874-10.849.848-4.311,8.277-4.512,9.139-8.808.316-1.581-.431-3.161-.474-4.756-.1-3.65,3.391-6.452,6.883-7.53s7.271-1.092,10.662-2.472c1.854-.747,3.521-1.882,5.331-2.745a9.067,9.067,0,0,1,5.748-1.006,4.411,4.411,0,0,1,3.578,4.21" transform="translate(-1.086 -155.307)" fill="#263238"/><path d="M144.145,185.5a13.665,13.665,0,0,0,10.791,5.36,33.307,33.307,0,0,0-2.012-8.018,13.033,13.033,0,0,0-5.173-6.294,8.219,8.219,0,0,0-7.932-.388" transform="translate(10.862 -155.07)" fill="#263238"/><path d="M120.835,243.576a1.883,1.883,0,0,1-.7-.517,2.587,2.587,0,0,1-.374-2.371,3.449,3.449,0,0,1,.991-1.437,10.836,10.836,0,0,1,1.753-1.279,11.6,11.6,0,0,0,2.04-1.437,3.564,3.564,0,0,0,1.221-2.558,4.526,4.526,0,0,0-1.293-2.874c-.7-.833-1.552-1.581-2.213-2.515a7.8,7.8,0,0,1-.905-6.969,7.185,7.185,0,0,1,2.141-3.233c1.035-.877,2.3-1.509,3.449-2.385a5.935,5.935,0,0,0,1.437-1.609,3.722,3.722,0,0,0,.489-2.184,15.648,15.648,0,0,0-1.437-4.311,8.234,8.234,0,0,1-.46-4.311,11.022,11.022,0,0,1,1.437-3.995,16.482,16.482,0,0,1,5.848-5.518,58.919,58.919,0,0,1,6.653-3.262,46.964,46.964,0,0,0,5.748-2.946,18.58,18.58,0,0,0,4.124-3.391,13.177,13.177,0,0,0,2.2-3.391,9.67,9.67,0,0,0,.718-2.443,6.713,6.713,0,0,0,.086-.891,4.063,4.063,0,0,1-.144.877,9.742,9.742,0,0,1-.776,2.4,15.577,15.577,0,0,1-6.337,6.653,46.754,46.754,0,0,1-5.748,2.874A57.81,57.81,0,0,0,134.1,193.8a16.841,16.841,0,0,0-5.978,5.6,11.4,11.4,0,0,0-1.437,4.11,8.622,8.622,0,0,0,.474,4.483,15.649,15.649,0,0,1,1.437,4.153,3.477,3.477,0,0,1-.46,2.012,5.087,5.087,0,0,1-1.437,1.523c-1.106.862-2.371,1.437-3.434,2.385a7.645,7.645,0,0,0-2.242,3.377,8.076,8.076,0,0,0,.977,7.185c.69.963,1.552,1.7,2.242,2.515a4.311,4.311,0,0,1,1.25,2.673,3.247,3.247,0,0,1-1.135,2.4,11.124,11.124,0,0,1-2,1.437,10.059,10.059,0,0,0-1.753,1.322,3.52,3.52,0,0,0-1.006,1.552,2.644,2.644,0,0,0,.445,2.457A1.437,1.437,0,0,0,120.835,243.576Z" transform="translate(1.971 -154.012)" fill="#455a64"/><path d="M116.53,210.047h.56a15.519,15.519,0,0,0,1.609-.158,8.336,8.336,0,0,0,2.457-.69,5.159,5.159,0,0,0,2.4-2.371,10.058,10.058,0,0,0,.905-4.009,40.485,40.485,0,0,1,.244-4.656,10.461,10.461,0,0,1,2.026-4.627,16.352,16.352,0,0,1,4.038-3.693,42.92,42.92,0,0,1,9.829-4.138c1.566-.532,3.046-1.049,4.4-1.638a25.249,25.249,0,0,0,3.635-1.911,14.886,14.886,0,0,0,4.311-4.009,8.163,8.163,0,0,0,1.049-1.9l-.072.115-.2.374a14.276,14.276,0,0,1-.877,1.336,15.361,15.361,0,0,1-4.311,3.894,24.109,24.109,0,0,1-3.607,1.854c-1.351.56-2.874,1.078-4.4,1.6a42.949,42.949,0,0,0-9.9,4.167,16.209,16.209,0,0,0-4.124,3.765,10.892,10.892,0,0,0-2.069,4.771,45.05,45.05,0,0,0-.216,4.7,9.527,9.527,0,0,1-.833,3.908,4.986,4.986,0,0,1-2.27,2.314,9.111,9.111,0,0,1-2.4.733c-.69.115-1.236.172-1.6.216a4.784,4.784,0,0,0-.589.057Z" transform="translate(0.686 -154.667)" fill="#455a64"/><path d="M164.29,214.207l.187-.129a2.987,2.987,0,0,0,.5-.445,5.877,5.877,0,0,0,1.336-2.055,6.639,6.639,0,0,0,.359-3.607,6.265,6.265,0,0,0-2.357-3.75,6.466,6.466,0,0,0-4.225-1.365,22.045,22.045,0,0,1-3.564.345,2.745,2.745,0,0,1-1.983-1.121,2.5,2.5,0,0,1-.287-.819s0,.072,0,.23a1.609,1.609,0,0,0,.2.647,2.788,2.788,0,0,0,2.055,1.293,19.541,19.541,0,0,0,3.607-.287,6.366,6.366,0,0,1,4.009,1.322,6.064,6.064,0,0,1,2.256,3.607,6.509,6.509,0,0,1-.287,3.477,6.208,6.208,0,0,1-1.207,2.055A8.009,8.009,0,0,0,164.29,214.207Z" transform="translate(17.172 -143.739)" fill="#455a64"/><path d="M108.017,190.687l-.948-2.084a2.213,2.213,0,0,1,1.164-2.946c10.633-4.469,58.326-24.428,59.633-24.428,1.566,0,2.27,2.428,2.27,2.428a8.061,8.061,0,0,1-.259,2.673Z" transform="translate(-3.533 -161.23)" fill="#008ad8"/><path d="M166.907,162.56,108.74,186.988a2.155,2.155,0,0,0-.187,3.88l12.631,6.883a2.127,2.127,0,0,0,1.8.115l43.855-17.243a2.17,2.17,0,0,0,1.351-1.753l1.652-13.953a2.141,2.141,0,0,0-2.931-2.357Z" transform="translate(-3.293 -160.721)" fill="#008ad8"/><g transform="translate(104.132 1.674)" opacity="0.5"><path d="M166.907,162.56,108.74,186.988a2.155,2.155,0,0,0-.187,3.88l12.631,6.883a2.127,2.127,0,0,0,1.8.115l43.855-17.243a2.17,2.17,0,0,0,1.351-1.753l1.652-13.953a2.141,2.141,0,0,0-2.931-2.357Z" transform="translate(-107.425 -162.395)"/></g><path d="M124.057,197.85c0-.187-.905-2.141-1.925-4.526a12.717,12.717,0,0,1,5.662-16.194,67.178,67.178,0,0,1,15.059-6.006,12.616,12.616,0,0,1,14.269,6.236l3.046,5.6Z" transform="translate(2.685 -157.084)" fill="#008ad8"/><path d="M106.47,197.57a9.092,9.092,0,0,0,1.322-.374,7.184,7.184,0,0,0,2.974-2.112,10.691,10.691,0,0,0,2.328-4.9,56.537,56.537,0,0,0,.776-6.8,16.9,16.9,0,0,1,1.825-6.754,7.429,7.429,0,0,1,4.311-3.664,5.489,5.489,0,0,1,3.851.115,2.515,2.515,0,0,1,1.15.819,6.227,6.227,0,0,0-1.25-.546,5.633,5.633,0,0,0-3.592.115,7.041,7.041,0,0,0-3.937,3.492,17.028,17.028,0,0,0-1.681,6.495,52.089,52.089,0,0,1-.848,6.883,10.749,10.749,0,0,1-2.615,5.1,6.926,6.926,0,0,1-3.276,2.026,2.687,2.687,0,0,1-1.336.1Z" transform="translate(-3.71 -156.229)" fill="#263238"/><path d="M109.589,190.307c-2.874-1.193-6.179-.331-9.053-1.437a3.837,3.837,0,0,0,2.184,1.624,1.437,1.437,0,0,1-1.164.259c-.417,0-.92,0-1.106.374a1.02,1.02,0,0,0-.086.589,8.622,8.622,0,0,0,.8,3.1c1.854-.647,3.664-1.437,5.446-2.2,1.106-.5,3.046-.891,2.96-2.2" transform="translate(-6.383 -149.153)" fill="#263238"/><path d="M158.344,220.506s7.07-2.874,10.906.388c1.983,1.667,11.237,105.27,9.541,126.092s-6.136,31.024-6.136,31.024l-30.406-5.317s9.671-31.469,12.286-54.058S158.344,220.506,158.344,220.506Z" transform="translate(11.924 -135.841)" fill="#455a64"/><path d="M175.023,323.9a4.413,4.413,0,0,1-1.164.675,28.538,28.538,0,0,1-3.406,1.437,13.694,13.694,0,0,1-5.475.819,16.194,16.194,0,0,1-6.409-2.213,46.887,46.887,0,0,0-5.891-3.018,9.627,9.627,0,0,0-5.173-.618,6.539,6.539,0,0,0-3.2,1.437c-.647.546-.891.963-.948.934s.129-.489.747-1.15a6.453,6.453,0,0,1,3.291-1.767,9.929,9.929,0,0,1,5.532.488,42.552,42.552,0,0,1,6.006,3,16.266,16.266,0,0,0,6.107,2.184,13.923,13.923,0,0,0,5.259-.632C173.227,324.6,174.98,323.771,175.023,323.9Z" transform="translate(12.401 -91.748)" fill="#263238"/><path d="M175.271,319.305a4.31,4.31,0,0,1-1.106.762,32.321,32.321,0,0,1-3.262,1.724,17.6,17.6,0,0,1-5.288,1.537,10.173,10.173,0,0,1-6.581-1.437c-2.084-1.236-3.736-2.788-5.446-3.822a8.507,8.507,0,0,0-4.914-1.566,5.374,5.374,0,0,0-3.247,1.207c-.632.546-.833.992-.905.963a2.213,2.213,0,0,1,.69-1.207,5.316,5.316,0,0,1,3.406-1.523,8.736,8.736,0,0,1,5.317,1.509c1.8,1.049,3.492,2.586,5.46,3.779a9.814,9.814,0,0,0,6.15,1.437,18.263,18.263,0,0,0,5.144-1.336C173.532,320.124,175.213,319.176,175.271,319.305Z" transform="translate(12.916 -93.633)" fill="#263238"/><path d="M153.026,219.52s-13,3.377-12.932,8.622-3.894,67.35-19.6,102.785C110.148,354.42,94.14,362.467,94.14,362.467L130.681,378.5s19.7-24.9,23.264-70.094a557.638,557.638,0,0,0-.92-88.889Z" transform="translate(-9.097 -135.761)" fill="#455a64"/><path d="M132.3,328.292a12.72,12.72,0,0,0-.129-1.523,8.622,8.622,0,0,0-1.437-3.779,8.306,8.306,0,0,0-4.814-3.348,21.252,21.252,0,0,0-7.415-.345,29.845,29.845,0,0,1-7.673,0A10.056,10.056,0,0,1,107.6,318.2a8.622,8.622,0,0,1-2.3-1.882,6.136,6.136,0,0,1-1.638-3.908,3.334,3.334,0,0,1,.144-1.15c0-.259.115-.388.144-.374a10.284,10.284,0,0,0,0,1.509,6.38,6.38,0,0,0,1.739,3.578,8.808,8.808,0,0,0,5.259,2.644,31.44,31.44,0,0,0,7.5-.1,21.15,21.15,0,0,1,7.673.417,8.622,8.622,0,0,1,5.058,3.736,8.22,8.22,0,0,1,1.264,4.052A3.248,3.248,0,0,1,132.3,328.292Z" transform="translate(-4.939 -95.837)" fill="#263238"/><path d="M134.266,324.878s0-.546-.086-1.437a8.463,8.463,0,0,0-1.437-3.736,8.176,8.176,0,0,0-4.684-3.348,21.424,21.424,0,0,0-7.285-.474,30.536,30.536,0,0,1-7.544-.129,10.447,10.447,0,0,1-3.161-1.121,8.622,8.622,0,0,1-2.242-1.882,5.992,5.992,0,0,1-1.566-3.865,4.008,4.008,0,0,1,.158-1.135c.086-.244.144-.374.158-.359a7.6,7.6,0,0,0,0,1.437,6.107,6.107,0,0,0,1.667,3.535,8.62,8.62,0,0,0,2.155,1.681,9.872,9.872,0,0,0,2.989.977,31.329,31.329,0,0,0,7.372.072,21.223,21.223,0,0,1,7.53.56,8.622,8.622,0,0,1,4.929,3.722,7.918,7.918,0,0,1,1.207,4.009,3.405,3.405,0,0,1-.158,1.494Z" transform="translate(-3.802 -97.367)" fill="#263238"/><path d="M70.459,244.891l-3.851-4.239c-3.161-4.167-5.087-6.351-5.058-8.363,0-2.687,3.19-1.969,3.19-1.969s-1.609-3.635.316-4.943a2.3,2.3,0,0,1,2.658.316s-1.308-3.319-.733-4.756c.776-1.94,3.1-.891,3.1-.891-1.02-5.23,1.279-6.8,2.2-6.222s2.112,4.311,2.112,4.311c1.437,2.759,5.116,10.432,6.366,5.159s4.182-8.837,5.647-9.254a1.7,1.7,0,0,1,1.552,2.874,19.729,19.729,0,0,0-2.242,4.972,13.033,13.033,0,0,0-.675,4.311c0,1.71.129,3.161.244,4.4l-.144,7.084Z" transform="translate(-23.338 -138.298)" fill="#ffbe9d"/><path d="M87.908,221.384a6.581,6.581,0,0,1-10.36,4.081,10.576,10.576,0,0,1-3.477-5.748,58.167,58.167,0,0,0-1.868-6.581A15.663,15.663,0,0,0,59.744,204.2a21.554,21.554,0,0,0-15.1,4.311l4.67-5.4-7.831-2.673a21.985,21.985,0,0,1,34.831,7.759c.733,1.724,1.25,3.535,2.141,5.173a7.357,7.357,0,0,0,4.009,3.707,3.98,3.98,0,0,0,4.771-1.868" transform="translate(-32.107 -146.533)" fill="#008ad8"/><path d="M84.723,192.082,58.93,269.447c1.178,5.288,5.345,6.754,12,5.072l25.994-79.391C94.451,190.1,90.184,189.6,84.723,192.082Z" transform="translate(-24.482 -148.385)" fill="#fafafa"/><path d="M84.815,192.127l.2-.115.647-.3a15.306,15.306,0,0,1,2.63-.877,8.392,8.392,0,0,1,4.5,0,7.889,7.889,0,0,1,4.4,4.2v.144c-5.1,15.936-14.642,45.307-25.606,78.8l-.216.647v.2h-.2a14.844,14.844,0,0,1-7.688.259,6.524,6.524,0,0,1-3.219-2.155,8.622,8.622,0,0,1-1.538-3.449v-.2L77.213,214.2c2.342-6.869,4.225-12.386,5.532-16.252.647-1.854,1.15-3.3,1.523-4.311.158-.46.287-.833.4-1.121a2.253,2.253,0,0,1,.144-.359,1.25,1.25,0,0,1-.1.4l-.345,1.164c-.345,1.049-.819,2.529-1.437,4.426l-5.317,16.338c-4.6,13.881-10.993,33.193-18.235,55.121v-.187a7.9,7.9,0,0,0,1.437,3.147,5.748,5.748,0,0,0,2.874,1.911,14.368,14.368,0,0,0,7.285-.273l-.259.244.2-.647c10.978-33.5,20.649-62.823,25.966-78.687v.144a7.587,7.587,0,0,0-4.182-4.052,8.463,8.463,0,0,0-4.311-.144,30.689,30.689,0,0,0-3.578,1.063Z" transform="translate(-24.574 -148.429)" fill="#263238"/><path d="M70.7,251.4c-.129,0-.1-.934-.632-2.27a6.883,6.883,0,0,0-9.125-3.952c-1.351.517-2.026,1.178-2.112,1.078s.5-.862,1.9-1.566A6.969,6.969,0,0,1,70.558,249a3.636,3.636,0,0,1,.144,2.4Z" transform="translate(-24.528 -125.089)" fill="#263238"/><path d="M69.2,248.507a4.153,4.153,0,0,1-2.385,1.279,6.955,6.955,0,0,1-3,0,6.624,6.624,0,0,1-1.7-.589,3.362,3.362,0,0,1-1.437-1.437,1.954,1.954,0,0,1,.23-2.127,2,2,0,0,1,1.9-.546,2.3,2.3,0,0,1,1.969,2.342,1.322,1.322,0,0,1-.733,1.049,1.035,1.035,0,0,1-.977,0c-.46-.316-.374-.7-.345-.69a1.012,1.012,0,0,0,.489.431.7.7,0,0,0,.632,0,.977.977,0,0,0,.417-.747,1.782,1.782,0,0,0-1.581-1.638,1.336,1.336,0,0,0-1.236.359,1.236,1.236,0,0,0-.1,1.322,4.038,4.038,0,0,0,2.644,1.638,6.883,6.883,0,0,0,2.73.115C68.276,249,69.124,248.392,69.2,248.507Z" transform="translate(-23.813 -124.614)" fill="#263238"/><path d="M92.512,191.78a4.1,4.1,0,0,1-.23.79c-.216.589-.474,1.322-.79,2.227-.733,2.012-1.753,4.771-2.989,8.133l-9.757,26.885c-3.794,10.5-7.314,19.988-9.958,26.813-1.336,3.406-2.428,6.164-3.219,8.047-.359.891-.675,1.609-.905,2.184a3.492,3.492,0,0,1-.374.733,3.089,3.089,0,0,1,.23-.79c.2-.589.46-1.322.79-2.227.733-2.012,1.739-4.771,2.974-8.133l9.757-26.885c3.808-10.5,7.314-19.988,9.972-26.813,1.322-3.406,2.414-6.164,3.2-8.047.374-.891.675-1.609.92-2.17a2.772,2.772,0,0,1,.374-.747Z" transform="translate(-22.14 -147.881)" fill="#263238"/><path d="M67.68,222.36s8.061-3.463,11.5,4.067l2.587-8.1s-3.635-6.969-11.7-3.262Z" transform="translate(-20.659 -138.184)" fill="#008ad8"/></g></g></svg>